<svg xmlns="http://www.w3.org/2000/svg" xmlns:xlink="http://www.w3.org/1999/xlink" width="1024" zoomAndPan="magnify" viewBox="0 0 768 767.999994" height="1024" preserveAspectRatio="xMidYMid meet" version="1.0"><defs><g/><clipPath id="44aba77148"><path d="M 0.390625 61.363281 L 52.984375 61.363281 L 52.984375 119.914062 L 0.390625 119.914062 Z M 0.390625 61.363281 " clip-rule="nonzero"/></clipPath><clipPath id="6989bc801d"><path d="M 4.140625 61.363281 L 49.234375 61.363281 C 50.226562 61.363281 51.179688 61.757812 51.882812 62.460938 C 52.585938 63.164062 52.984375 64.117188 52.984375 65.113281 L 52.984375 116.144531 C 52.984375 117.140625 52.585938 118.09375 51.882812 118.796875 C 51.179688 119.5 50.226562 119.894531 49.234375 119.894531 L 4.140625 119.894531 C 3.144531 119.894531 2.191406 119.5 1.488281 118.796875 C 0.785156 118.09375 0.390625 117.140625 0.390625 116.144531 L 0.390625 65.113281 C 0.390625 64.117188 0.785156 63.164062 1.488281 62.460938 C 2.191406 61.757812 3.144531 61.363281 4.140625 61.363281 Z M 4.140625 61.363281 " clip-rule="nonzero"/></clipPath><clipPath id="825d6237b2"><path d="M 0.390625 0.363281 L 52.984375 0.363281 L 52.984375 58.914062 L 0.390625 58.914062 Z M 0.390625 0.363281 " clip-rule="nonzero"/></clipPath><clipPath id="df8d522d1b"><path d="M 4.140625 0.363281 L 49.234375 0.363281 C 50.226562 0.363281 51.179688 0.757812 51.882812 1.460938 C 52.585938 2.164062 52.984375 3.117188 52.984375 4.113281 L 52.984375 55.144531 C 52.984375 56.140625 52.585938 57.09375 51.882812 57.796875 C 51.179688 58.5 50.226562 58.894531 49.234375 58.894531 L 4.140625 58.894531 C 3.144531 58.894531 2.191406 58.5 1.488281 57.796875 C 0.785156 57.09375 0.390625 56.140625 0.390625 55.144531 L 0.390625 4.113281 C 0.390625 3.117188 0.785156 2.164062 1.488281 1.460938 C 2.191406 0.757812 3.144531 0.363281 4.140625 0.363281 Z M 4.140625 0.363281 " clip-rule="nonzero"/></clipPath><clipPath id="b5a105f243"><rect x="0" width="53" y="0" height="59"/></clipPath><clipPath id="bcf6933e9a"><path d="M 77.015625 61.363281 L 129.609375 61.363281 L 129.609375 119.914062 L 77.015625 119.914062 Z M 77.015625 61.363281 " clip-rule="nonzero"/></clipPath><clipPath id="f464620852"><path d="M 129.609375 65.113281 L 129.609375 116.140625 C 129.609375 117.136719 129.214844 118.089844 128.511719 118.792969 C 127.808594 119.496094 126.855469 119.890625 125.859375 119.890625 L 80.765625 119.890625 C 79.773438 119.890625 78.820312 119.496094 78.117188 118.792969 C 77.414062 118.089844 77.015625 117.136719 77.015625 116.140625 L 77.015625 65.113281 C 77.015625 64.117188 77.414062 63.164062 78.117188 62.460938 C 78.820312 61.757812 79.773438 61.363281 80.765625 61.363281 L 125.859375 61.363281 C 126.855469 61.363281 127.808594 61.757812 128.511719 62.460938 C 129.214844 63.164062 129.609375 64.117188 129.609375 65.113281 Z M 129.609375 65.113281 " clip-rule="nonzero"/></clipPath><clipPath id="36975fb3b0"><path d="M 0.015625 0.363281 L 52.609375 0.363281 L 52.609375 58.914062 L 0.015625 58.914062 Z M 0.015625 0.363281 " clip-rule="nonzero"/></clipPath><clipPath id="34646f69ed"><path d="M 52.609375 4.113281 L 52.609375 55.140625 C 52.609375 56.136719 52.214844 57.089844 51.511719 57.792969 C 50.808594 58.496094 49.855469 58.890625 48.859375 58.890625 L 3.765625 58.890625 C 2.773438 58.890625 1.820312 58.496094 1.117188 57.792969 C 0.414062 57.089844 0.015625 56.136719 0.015625 55.140625 L 0.015625 4.113281 C 0.015625 3.117188 0.414062 2.164062 1.117188 1.460938 C 1.820312 0.757812 2.773438 0.363281 3.765625 0.363281 L 48.859375 0.363281 C 49.855469 0.363281 50.808594 0.757812 51.511719 1.460938 C 52.214844 2.164062 52.609375 3.117188 52.609375 4.113281 Z M 52.609375 4.113281 " clip-rule="nonzero"/></clipPath><clipPath id="b9e4411a0d"><rect x="0" width="53" y="0" height="59"/></clipPath><clipPath id="a36d55814a"><path d="M 77.015625 138.515625 L 129.609375 138.515625 L 129.609375 197.066406 L 77.015625 197.066406 Z M 77.015625 138.515625 " clip-rule="nonzero"/></clipPath><clipPath id="9f77e47011"><path d="M 80.765625 138.515625 L 125.859375 138.515625 C 126.855469 138.515625 127.808594 138.910156 128.511719 139.613281 C 129.214844 140.316406 129.609375 141.273438 129.609375 142.265625 L 129.609375 193.300781 C 129.609375 194.292969 129.214844 195.246094 128.511719 195.949219 C 127.808594 196.652344 126.855469 197.050781 125.859375 197.050781 L 80.765625 197.050781 C 79.773438 197.050781 78.820312 196.652344 78.117188 195.949219 C 77.414062 195.246094 77.015625 194.292969 77.015625 193.300781 L 77.015625 142.265625 C 77.015625 141.273438 77.414062 140.316406 78.117188 139.613281 C 78.820312 138.910156 79.773438 138.515625 80.765625 138.515625 Z M 80.765625 138.515625 " clip-rule="nonzero"/></clipPath><clipPath id="51b1efdf41"><path d="M 0.015625 0.515625 L 52.609375 0.515625 L 52.609375 59.066406 L 0.015625 59.066406 Z M 0.015625 0.515625 " clip-rule="nonzero"/></clipPath><clipPath id="fe1b63f560"><path d="M 3.765625 0.515625 L 48.859375 0.515625 C 49.855469 0.515625 50.808594 0.910156 51.511719 1.613281 C 52.214844 2.316406 52.609375 3.273438 52.609375 4.265625 L 52.609375 55.300781 C 52.609375 56.292969 52.214844 57.246094 51.511719 57.949219 C 50.808594 58.652344 49.855469 59.050781 48.859375 59.050781 L 3.765625 59.050781 C 2.773438 59.050781 1.820312 58.652344 1.117188 57.949219 C 0.414062 57.246094 0.015625 56.292969 0.015625 55.300781 L 0.015625 4.265625 C 0.015625 3.273438 0.414062 2.316406 1.117188 1.613281 C 1.820312 0.910156 2.773438 0.515625 3.765625 0.515625 Z M 3.765625 0.515625 " clip-rule="nonzero"/></clipPath><clipPath id="51eb4f5de6"><rect x="0" width="53" y="0" height="60"/></clipPath><clipPath id="e19fa54f97"><path d="M 0.390625 138.515625 L 52.984375 138.515625 L 52.984375 197.066406 L 0.390625 197.066406 Z M 0.390625 138.515625 " clip-rule="nonzero"/></clipPath><clipPath id="01dd9cee72"><path d="M 4.140625 138.515625 L 49.234375 138.515625 C 50.226562 138.515625 51.179688 138.910156 51.882812 139.613281 C 52.585938 140.316406 52.984375 141.273438 52.984375 142.265625 L 52.984375 193.300781 C 52.984375 194.292969 52.585938 195.246094 51.882812 195.949219 C 51.179688 196.652344 50.226562 197.050781 49.234375 197.050781 L 4.140625 197.050781 C 3.144531 197.050781 2.191406 196.652344 1.488281 195.949219 C 0.785156 195.246094 0.390625 194.292969 0.390625 193.300781 L 0.390625 142.265625 C 0.390625 141.273438 0.785156 140.316406 1.488281 139.613281 C 2.191406 138.910156 3.144531 138.515625 4.140625 138.515625 Z M 4.140625 138.515625 " clip-rule="nonzero"/></clipPath><clipPath id="77c4ad4fcc"><path d="M 0.390625 0.515625 L 52.984375 0.515625 L 52.984375 59.066406 L 0.390625 59.066406 Z M 0.390625 0.515625 " clip-rule="nonzero"/></clipPath><clipPath id="380e5ff162"><path d="M 4.140625 0.515625 L 49.234375 0.515625 C 50.226562 0.515625 51.179688 0.910156 51.882812 1.613281 C 52.585938 2.316406 52.984375 3.273438 52.984375 4.265625 L 52.984375 55.300781 C 52.984375 56.292969 52.585938 57.246094 51.882812 57.949219 C 51.179688 58.652344 50.226562 59.050781 49.234375 59.050781 L 4.140625 59.050781 C 3.144531 59.050781 2.191406 58.652344 1.488281 57.949219 C 0.785156 57.246094 0.390625 56.292969 0.390625 55.300781 L 0.390625 4.265625 C 0.390625 3.273438 0.785156 2.316406 1.488281 1.613281 C 2.191406 0.910156 3.144531 0.515625 4.140625 0.515625 Z M 4.140625 0.515625 " clip-rule="nonzero"/></clipPath><clipPath id="d12d8c525c"><rect x="0" width="53" y="0" height="60"/></clipPath><clipPath id="ffdc17a214"><path d="M 48 0.199219 L 88 0.199219 L 88 182 L 48 182 Z M 48 0.199219 " clip-rule="nonzero"/></clipPath><clipPath id="7fae7beb2a"><rect x="0" width="40" y="0" height="182"/></clipPath><clipPath id="a467392d58"><rect x="0" width="130" y="0" height="198"/></clipPath></defs><g transform="matrix(1, 0, 0, 1, 319, 211)"><g clip-path="url(#a467392d58)"><g clip-path="url(#44aba77148)"><g clip-path="url(#6989bc801d)"><g transform="matrix(1, 0, 0, 1, 0, 61)"><g clip-path="url(#b5a105f243)"><g clip-path="url(#825d6237b2)"><g clip-path="url(#df8d522d1b)"><path fill="#da3743" d="M 0.390625 0.363281 L 52.984375 0.363281 L 52.984375 58.914062 L 0.390625 58.914062 Z M 0.390625 0.363281 " fill-opacity="1" fill-rule="nonzero"/></g></g></g></g></g></g><g clip-path="url(#bcf6933e9a)"><g clip-path="url(#f464620852)"><g transform="matrix(1, 0, 0, 1, 77, 61)"><g clip-path="url(#b9e4411a0d)"><g clip-path="url(#36975fb3b0)"><g clip-path="url(#34646f69ed)"><path fill="#da3743" d="M 0.015625 0.363281 L 52.609375 0.363281 L 52.609375 58.914062 L 0.015625 58.914062 Z M 0.015625 0.363281 " fill-opacity="1" fill-rule="nonzero"/></g></g></g></g></g></g><g clip-path="url(#a36d55814a)"><g clip-path="url(#9f77e47011)"><g transform="matrix(1, 0, 0, 1, 77, 138)"><g clip-path="url(#51eb4f5de6)"><g clip-path="url(#51b1efdf41)"><g clip-path="url(#fe1b63f560)"><path fill="#da3743" d="M 0.015625 0.515625 L 52.609375 0.515625 L 52.609375 59.066406 L 0.015625 59.066406 Z M 0.015625 0.515625 " fill-opacity="1" fill-rule="nonzero"/></g></g></g></g></g></g><g clip-path="url(#e19fa54f97)"><g clip-path="url(#01dd9cee72)"><g transform="matrix(1, 0, 0, 1, 0, 138)"><g clip-path="url(#d12d8c525c)"><g clip-path="url(#77c4ad4fcc)"><g clip-path="url(#380e5ff162)"><path fill="#da3743" d="M 0.390625 0.515625 L 52.984375 0.515625 L 52.984375 59.066406 L 0.390625 59.066406 Z M 0.390625 0.515625 " fill-opacity="1" fill-rule="nonzero"/></g></g></g></g></g></g><g clip-path="url(#ffdc17a214)"><g transform="matrix(1, 0, 0, 1, 48, -0.000000000000056843)"><g clip-path="url(#7fae7beb2a)"><g fill="#da3743" fill-opacity="1"><g transform="translate(1.123012, 141.872742)"><g><path d="M 18.3125 0.578125 C 16.019531 0.578125 13.992188 0.113281 12.234375 -0.8125 C 10.484375 -1.738281 9.144531 -3.023438 8.21875 -4.671875 C 7.289062 -6.316406 6.828125 -8.179688 6.828125 -10.265625 C 6.828125 -12.335938 7.289062 -14.195312 8.21875 -15.84375 C 9.144531 -17.488281 10.484375 -18.785156 12.234375 -19.734375 C 13.992188 -20.691406 16.019531 -21.171875 18.3125 -21.171875 C 20.65625 -21.171875 22.703125 -20.707031 24.453125 -19.78125 C 26.210938 -18.851562 27.554688 -17.566406 28.484375 -15.921875 C 29.421875 -14.273438 29.890625 -12.410156 29.890625 -10.328125 C 29.890625 -7.171875 28.835938 -4.5625 26.734375 -2.5 C 24.628906 -0.445312 21.820312 0.578125 18.3125 0.578125 Z M 18.3125 0.578125 "/></g></g></g></g></g></g></g></g></svg>