<svg width="32" height="146" viewBox="0 0 32 146" fill="none" xmlns="http://www.w3.org/2000/svg">
<path d="M28.9409 63.1732L29.2951 63.5261L28.9409 63.1732ZM1.24993 49.4309L0.81675 49.1811L1.24993 49.4309ZM15.6116 45.5817L15.7484 45.1007L15.6116 45.5817ZM20.6256 98.6641L21.0397 98.9443L20.6256 98.6641ZM12.2295 145.687L9.83054 140.436L15.578 140.984L12.2295 145.687ZM14.2666 0.187256C14.7302 5.10015e-06 14.7302 9.23309e-06 14.7302 1.45776e-05C14.7302 1.80093e-05 14.7302 2.45897e-05 14.7302 3.14409e-05C14.7302 4.51345e-05 14.7302 6.37543e-05 14.7302 8.72759e-05C14.7303 0.00013434 14.7303 0.000201057 14.7303 0.000287425C14.7304 0.000460148 14.7305 0.000711421 14.7306 0.00104109C14.7309 0.00170042 14.7313 0.00267328 14.7318 0.00395828C14.7328 0.00652828 14.7344 0.0103468 14.7364 0.0154027C14.7405 0.0255146 14.7466 0.0405759 14.7546 0.0604972C14.7706 0.10034 14.7944 0.159623 14.8256 0.23763C14.888 0.393644 14.9801 0.624558 15.0989 0.924643L14.634 1.10869L14.1691 1.29274C14.0507 0.993807 13.9591 0.764003 13.8971 0.609054C13.8661 0.531579 13.8425 0.472819 13.8267 0.433489C13.8188 0.413824 13.8129 0.399017 13.8089 0.389157C13.8069 0.384226 13.8054 0.380533 13.8044 0.378088C13.8039 0.376865 13.8036 0.375954 13.8033 0.375357C13.8032 0.375058 13.8031 0.374838 13.8031 0.374696C13.803 0.374625 13.803 0.374574 13.803 0.374542C13.803 0.374527 13.803 0.374516 13.803 0.37451C13.803 0.374507 13.803 0.374506 13.803 0.374505C13.803 0.374505 13.803 0.374507 14.2666 0.187256ZM15.3873 3.0302L15.8533 2.84908C16.0747 3.41866 16.3242 4.06474 16.5977 4.77908L16.1307 4.95786L15.6638 5.13663C15.3909 4.42393 15.142 3.77941 14.9212 3.21132L15.3873 3.0302ZM16.8665 6.89305L17.3342 6.71643C17.5649 7.32736 17.8069 7.9721 18.0584 8.6473L17.5898 8.82183L17.1213 8.99637C16.8703 8.32262 16.6289 7.67926 16.3987 7.06966L16.8665 6.89305ZM18.3025 10.7478L18.7718 10.5753C19.0011 11.1994 19.2363 11.8435 19.4764 12.5057L19.0063 12.6761L18.5362 12.8465C18.2967 12.1858 18.062 11.543 17.8331 10.9203L18.3025 10.7478ZM19.7025 14.6102L20.1733 14.4419C20.4003 15.077 20.6304 15.7254 20.8629 16.3856L20.3913 16.5516L19.9197 16.7177C19.6877 16.059 19.4581 15.4121 19.2317 14.7785L19.7025 14.6102ZM21.0721 18.5002L21.5445 18.3365C21.767 18.9781 21.9908 19.6287 22.2152 20.2871L21.742 20.4484L21.2687 20.6098C21.0448 19.9531 20.8216 19.3041 20.5997 18.664L21.0721 18.5002ZM22.3994 22.3934L22.8735 22.2346C23.0902 22.8814 23.307 23.5342 23.5231 24.1917L23.0481 24.3478L22.5731 24.504C22.3576 23.8484 22.1415 23.1974 21.9253 22.5523L22.3994 22.3934ZM23.686 26.3082L24.162 26.1549C24.3717 26.8062 24.5803 27.4609 24.7871 28.1178L24.3102 28.2679L23.8333 28.4181C23.6271 27.7634 23.4192 27.1108 23.2101 26.4614L23.686 26.3082ZM24.9217 30.2335L25.3997 30.0867C25.6016 30.744 25.8013 31.4024 25.9981 32.0609L25.519 32.2041L25.04 32.3473C24.8439 31.6914 24.645 31.0354 24.4438 30.3804L24.9217 30.2335ZM26.1 34.177L26.5802 34.0378C26.7726 34.7014 26.9615 35.3639 27.1464 36.0242L26.6649 36.159L26.1834 36.2938C25.9994 35.6366 25.8114 34.977 25.6198 34.3162L26.1 34.177ZM27.2102 38.145L27.6931 38.0151C27.8728 38.6831 28.0476 39.3475 28.217 40.0072L27.7327 40.1316L27.2484 40.2559C27.08 39.6001 26.9062 38.9394 26.7274 38.2749L27.2102 38.145ZM28.2322 42.1293L28.7181 42.0113C28.883 42.6903 29.0414 43.3628 29.1923 44.0274L28.7047 44.1381L28.2171 44.2489C28.0674 43.5895 27.9102 42.9218 27.7463 42.2474L28.2322 42.1293ZM29.1437 46.1502L29.6331 46.048C29.7763 46.7341 29.9104 47.4097 30.0345 48.0732L29.5431 48.1652L29.0516 48.2571C28.9288 47.6009 28.7961 46.9321 28.6542 46.2523L29.1437 46.1502ZM29.8953 50.1845L30.3889 50.105C30.5018 50.8069 30.6016 51.4923 30.687 52.1588L30.191 52.2223L29.6951 52.2858C29.6112 51.631 29.513 50.9562 29.4016 50.2639L29.8953 50.1845ZM30.4119 54.2715L30.9101 54.2289C30.9718 54.9516 31.0126 55.6465 31.0305 56.3101L30.5307 56.3236L30.0309 56.337C30.0136 55.6954 29.974 55.02 29.9137 54.314L30.4119 54.2715ZM30.5027 58.3803L31.0018 58.4107C30.955 59.1799 30.865 59.8935 30.7256 60.5416L30.2368 60.4365L29.748 60.3314C29.8745 59.7427 29.9592 59.0805 30.0037 58.35L30.5027 58.3803ZM29.5541 62.3496L29.9897 62.595C29.7926 62.9449 29.5623 63.2579 29.2951 63.5261L28.9409 63.1732L28.5867 62.8203C28.7819 62.6243 28.9595 62.3863 29.1184 62.1042L29.5541 62.3496ZM28.9409 63.1732L29.2951 63.5261C29.0304 63.7917 28.7436 64.0333 28.4371 64.2519L28.1467 63.8449L27.8564 63.4379C28.1193 63.2503 28.3632 63.0446 28.5867 62.8203L28.9409 63.1732ZM26.3017 64.7952L26.4714 65.2655C25.8099 65.5042 25.1013 65.6775 24.3582 65.7919L24.2821 65.2978L24.206 64.8036C24.8942 64.6976 25.5391 64.5388 26.132 64.3248L26.3017 64.7952ZM22.2087 65.464L22.2157 65.9639C21.5231 65.9737 20.8104 65.9437 20.0849 65.8773L20.1305 65.3794L20.1761 64.8815C20.8698 64.945 21.5472 64.9733 22.2016 64.964L22.2087 65.464ZM18.0641 65.0979L17.9761 65.5901C17.2904 65.4675 16.5988 65.3165 15.9067 65.1395L16.0306 64.6551L16.1545 64.1707C16.824 64.3419 17.4917 64.4876 18.1521 64.6057L18.0641 65.0979ZM14.0302 64.0709L13.8742 64.546C13.2059 64.3266 12.5418 64.0848 11.8871 63.8226L12.073 63.3585L12.2588 62.8943C12.894 63.1486 13.5381 63.3832 14.1861 63.5958L14.0302 64.0709ZM10.1651 62.5229L9.94987 62.9742C9.30681 62.6675 8.67832 62.3416 8.0698 61.9987L8.31525 61.5631L8.5607 61.1275C9.14883 61.4589 9.75715 61.7744 10.3804 62.0716L10.1651 62.5229ZM6.54043 60.4742L6.26255 60.8899C5.65986 60.487 5.08584 60.0666 4.5474 59.6312L4.86177 59.2424L5.17613 58.8536C5.68929 59.2685 6.23876 59.6711 6.81832 60.0586L6.54043 60.4742ZM3.31524 57.8443L2.95814 58.1943C2.43509 57.6606 1.96699 57.1089 1.56564 56.543L1.97347 56.2538L2.38131 55.9645C2.74817 56.4818 3.1812 56.9932 3.67235 57.4944L3.31524 57.8443ZM0.961793 54.4391L0.498343 54.6268C0.209897 53.9144 0.0355089 53.1841 -2.06267e-05 52.4451L0.499401 52.4211L0.998825 52.3971C1.02828 53.0098 1.17344 53.6296 1.42525 54.2515L0.961793 54.4391ZM0.808847 50.375L0.338598 50.2051C0.463273 49.86 0.622309 49.5184 0.81675 49.1811L1.24993 49.4309L1.68311 49.6806C1.51684 49.969 1.38301 50.2573 1.2791 50.5449L0.808847 50.375ZM1.24993 49.4309L0.81675 49.1811C0.998695 48.8655 1.18626 48.566 1.3795 48.2822L1.79279 48.5637L2.20607 48.8451C2.0276 49.1072 1.85324 49.3854 1.68311 49.6806L1.24993 49.4309ZM3.0886 46.9887L2.73623 46.6339C3.2697 46.104 3.83634 45.6632 4.43573 45.3045L4.6925 45.7335L4.94927 46.1626C4.4222 46.478 3.91932 46.8682 3.44097 47.3434L3.0886 46.9887ZM6.56032 44.921L6.42003 44.4411C7.09786 44.243 7.8029 44.1236 8.53301 44.0714L8.56871 44.5701L8.60441 45.0688C7.93679 45.1166 7.30264 45.225 6.70061 45.4009L6.56032 44.921ZM10.6098 44.5898L10.6504 44.0915C11.3226 44.1462 12.014 44.2431 12.7236 44.3753L12.6321 44.8668L12.5405 45.3584C11.8589 45.2314 11.202 45.1397 10.5692 45.0882L10.6098 44.5898ZM14.6247 45.3136L14.7496 44.8295C15.0787 44.9144 15.4117 45.005 15.7484 45.1007L15.6116 45.5817L15.4747 46.0626C15.1453 45.9689 14.8203 45.8804 14.4999 45.7978L14.6247 45.3136ZM15.6116 45.5817L15.7484 45.1007C16.081 45.1954 16.4064 45.3026 16.7246 45.422L16.5489 45.8901L16.3732 46.3582C16.0807 46.2485 15.7813 46.1498 15.4747 46.0626L15.6116 45.5817ZM18.3195 46.7273L18.5697 46.2944C19.1597 46.6355 19.7189 47.0232 20.2481 47.4535L19.9326 47.8414L19.6171 48.2294C19.1276 47.8312 18.6118 47.4738 18.0692 47.1602L18.3195 46.7273ZM21.359 49.186L21.7266 48.8471C22.1785 49.3373 22.6033 49.8629 23.0018 50.4203L22.595 50.7111L22.1883 51.0018C21.8124 50.476 21.4135 49.9828 20.9914 49.5249L21.359 49.186ZM23.6501 52.3703L24.0852 52.124C24.4093 52.6965 24.7115 53.2939 24.9927 53.9133L24.5374 54.1199L24.0821 54.3266C23.8124 53.7324 23.5235 53.1617 23.2149 52.6166L23.6501 52.3703ZM25.2781 55.936L25.7477 55.7643C25.9727 56.3796 26.18 57.0121 26.3702 57.6598L25.8904 57.8007L25.4107 57.9415C25.2262 57.3134 25.0256 56.7015 24.8085 56.1076L25.2781 55.936ZM26.389 59.6998L26.8759 59.5862C27.0247 60.2241 27.1587 60.8739 27.2783 61.5338L26.7864 61.623L26.2944 61.7122C26.1776 61.0678 26.0469 60.4343 25.9021 59.8133L26.389 59.6998ZM27.0929 63.5631L27.5883 63.4959C27.6765 64.1457 27.7518 64.8034 27.8147 65.4674L27.317 65.5146L26.8192 65.5617C26.7575 64.9106 26.6837 64.2663 26.5974 63.6303L27.0929 63.5631ZM27.4655 67.4733L27.9647 67.4447C28.0023 68.1005 28.0286 68.761 28.0438 69.4248L27.5439 69.4362L27.0441 69.4476C27.0291 68.795 27.0033 68.146 26.9663 67.502L27.4655 67.4733ZM27.5566 71.4006L28.0566 71.4054C28.0502 72.0636 28.0334 72.7238 28.0064 73.3845L27.5068 73.3642L27.0073 73.3438C27.0338 72.6932 27.0503 72.0434 27.0566 71.3957L27.5566 71.4006ZM27.3972 75.325L27.8959 75.3604C27.8492 76.0185 27.7927 76.676 27.7267 77.3314L27.2292 77.2814L26.7318 77.2313C26.7968 76.5855 26.8524 75.9379 26.8984 75.2896L27.3972 75.325ZM27.004 79.2321L27.4998 79.2967C27.4142 79.9532 27.3193 80.6064 27.2152 81.2551L26.7215 81.1759L26.2279 81.0966C26.3304 80.4578 26.4239 79.8143 26.5082 79.1675L27.004 79.2321ZM26.3813 83.1105L26.8724 83.2046C26.7474 83.8575 26.6131 84.5042 26.4699 85.1433L25.982 85.0339L25.4941 84.9246C25.635 84.2958 25.7672 83.6593 25.8903 83.0165L26.3813 83.1105ZM25.5213 86.9435L26.0053 87.0688C25.8378 87.7156 25.6609 88.3527 25.4751 88.9784L24.9958 88.836L24.5165 88.6936C24.6989 88.0795 24.8726 87.4538 25.0372 86.8181L25.5213 86.9435ZM24.4009 90.7073L24.8743 90.8681C24.658 91.5049 24.4318 92.1272 24.1963 92.733L23.7303 92.5518L23.2642 92.3706C23.4943 91.7789 23.7155 91.1702 23.9274 90.5465L24.4009 90.7073ZM22.9756 94.3616L23.432 94.5657C23.1537 95.1879 22.8645 95.7884 22.5649 96.3644L22.1213 96.1337L21.6777 95.903C21.9677 95.3455 22.2484 94.7629 22.5192 94.1574L22.9756 94.3616ZM21.1527 97.8471L21.5784 98.1094C21.4019 98.3959 21.2223 98.6743 21.0397 98.9443L20.6256 98.6641L20.2114 98.384C20.3857 98.1263 20.5576 97.8599 20.727 97.5849L21.1527 97.8471ZM20.6256 98.6641L21.0397 98.9443C20.8514 99.2227 20.6677 99.5017 20.4885 99.7813L20.0675 99.5116L19.6465 99.2418C19.8302 98.9552 20.0185 98.6693 20.2114 98.384L20.6256 98.6641ZM19.0205 101.238L19.4544 101.487C19.1209 102.069 18.8055 102.654 18.5074 103.241L18.0617 103.015L17.6159 102.788C17.9215 102.187 18.2447 101.587 18.5866 100.99L19.0205 101.238ZM17.1909 104.84L17.6473 105.044C17.3737 105.656 17.1175 106.271 16.8774 106.887L16.4116 106.705L15.9457 106.524C16.1915 105.893 16.454 105.264 16.7344 104.636L17.1909 104.84ZM15.7229 108.604L16.1968 108.764C15.9834 109.398 15.7858 110.034 15.6028 110.671L15.1222 110.533L14.6416 110.395C14.8286 109.744 15.0307 109.094 15.249 108.445L15.7229 108.604ZM14.6057 112.487L15.0917 112.605C14.9343 113.255 14.7907 113.907 14.6597 114.559L14.1695 114.461L13.6793 114.362C13.8128 113.698 13.9591 113.033 14.1197 112.37L14.6057 112.487ZM13.8077 116.448L14.3011 116.529C14.1928 117.19 14.096 117.851 14.0095 118.513L13.5137 118.448L13.0179 118.383C13.1058 117.712 13.2041 117.039 13.3143 116.367L13.8077 116.448ZM13.2808 120.456L13.7783 120.506C13.7103 121.173 13.6515 121.84 13.6002 122.507L13.1017 122.468L12.6032 122.43C12.655 121.756 12.7146 121.081 12.7834 120.405L13.2808 120.456ZM12.9686 124.485L13.4678 124.513C13.4304 125.184 13.3993 125.854 13.3733 126.524L12.8737 126.504L12.3741 126.485C12.4003 125.811 12.4316 125.135 12.4694 124.458L12.9686 124.485ZM12.809 128.524L13.3089 128.537C13.2914 129.211 13.2777 129.883 13.2663 130.554L12.7663 130.545L12.2664 130.537C12.2779 129.864 12.2917 129.188 12.3092 128.511L12.809 128.524ZM12.7372 132.566L13.2372 132.572C13.2287 133.249 13.2212 133.92 13.2129 134.593L12.713 134.587L12.213 134.58C12.2212 133.911 12.2288 133.235 12.2373 132.56L12.7372 132.566ZM12.6844 136.608L13.1844 136.616C13.173 137.294 13.1594 137.969 13.1419 138.641L12.6421 138.628L12.1423 138.615C12.1597 137.947 12.1732 137.275 12.1845 136.6L12.6844 136.608ZM12.5756 140.649L13.0752 140.669C13.0475 141.349 13.0141 142.025 12.9731 142.697L12.474 142.667L11.9749 142.636C12.0155 141.972 12.0486 141.303 12.076 140.628L12.5756 140.649Z" fill="#2D2D2D" fill-opacity="0.3"/>
</svg>
