<svg width="172" height="190" viewBox="0 0 172 190" fill="none" xmlns="http://www.w3.org/2000/svg">
<path d="M159.914 71.0944L160.512 71.896L159.914 71.0944ZM94.2824 58.0354L93.5505 57.354L94.2824 58.0354ZM133.016 44.9193L133.051 43.9199L133.016 44.9193ZM123.264 138.959L123.959 139.678L123.264 138.959ZM-0.000129392 183.513L9.94085 177.639L10.0579 189.185L-0.000129392 183.513ZM161.283 0.375732C162.21 -6.41838e-05 162.21 -4.64549e-05 162.21 -2.75203e-05C162.21 -1.9636e-05 162.21 4.6255e-07 162.21 1.62069e-05C162.21 4.77441e-05 162.21 8.39686e-05 162.21 0.000124908C162.21 0.000206763 162.21 0.000307491 162.21 0.000427021C162.21 0.000666084 162.21 0.000980435 162.21 0.00136993C162.211 0.00214887 162.211 0.00322835 162.212 0.00460716C162.213 0.00736474 162.215 0.0113197 162.217 0.0164623C162.221 0.0267474 162.227 0.0417836 162.235 0.0614939C162.25 0.100914 162.274 0.159033 162.304 0.235234C162.364 0.387635 162.452 0.612381 162.563 0.904554L161.629 1.26202L160.696 1.61948C160.586 1.3339 160.501 1.11551 160.443 0.969204C160.414 0.896053 160.392 0.840928 160.378 0.804443C160.37 0.786201 160.365 0.772619 160.361 0.763774C160.36 0.759352 160.358 0.756114 160.358 0.75407C160.357 0.753048 160.357 0.752324 160.357 0.7519C160.357 0.751688 160.357 0.751551 160.356 0.751489C160.356 0.751459 160.356 0.751446 160.356 0.751453C160.356 0.751456 160.356 0.751464 160.356 0.751477C160.356 0.751483 160.356 0.751496 160.356 0.751499C160.356 0.751514 160.357 0.751529 161.283 0.375732ZM162.32 3.11863L163.26 2.77789C163.461 3.33135 163.684 3.95997 163.926 4.6568L162.981 4.98424L162.036 5.31168C161.798 4.62414 161.577 4.00439 161.38 3.45937L162.32 3.11863ZM163.619 6.86358L164.568 6.54835C164.766 7.14525 164.972 7.77638 165.183 8.43892L164.23 8.74246L163.277 9.046C163.068 8.39156 162.865 7.76823 162.669 7.17882L163.619 6.86358ZM164.817 10.6238L165.773 10.3318C165.96 10.9446 166.15 11.5785 166.341 12.2317L165.381 12.5122L164.421 12.7926C164.232 12.1474 164.045 11.5212 163.86 10.9158L164.817 10.6238ZM165.923 14.4108L166.886 14.1421C167.061 14.7687 167.236 15.4099 167.409 16.0644L166.443 16.321L165.476 16.5776C165.305 15.9314 165.132 15.2983 164.96 14.6795L165.923 14.4108ZM166.94 18.2425L167.91 17.9984C168.068 18.6289 168.225 19.2698 168.38 19.92L167.407 20.1513L166.434 20.3825C166.282 19.7411 166.127 19.1088 165.97 18.4865L166.94 18.2425ZM167.85 22.0742L168.826 21.8564C168.969 22.4988 169.11 23.1489 169.246 23.8058L168.267 24.0095L167.288 24.2132C167.154 23.566 167.015 22.9253 166.874 22.292L167.85 22.0742ZM168.655 25.9452L169.637 25.7564C169.761 26.4029 169.882 27.055 169.997 27.7116L169.012 27.8849L168.027 28.0582C167.914 27.4123 167.795 26.7707 167.673 26.1341L168.655 25.9452ZM169.339 29.8352L170.326 29.6785C170.43 30.3319 170.529 30.989 170.621 31.649L169.631 31.7882L168.641 31.9273C168.55 31.2794 168.453 30.634 168.351 29.9919L169.339 29.8352ZM169.887 33.7454L170.88 33.625C170.96 34.2844 171.034 34.946 171.101 35.6088L170.106 35.7091L169.111 35.8094C169.045 35.1604 168.973 34.5123 168.895 33.8658L169.887 33.7454ZM170.283 37.6754L171.28 37.5967C171.332 38.2612 171.377 38.9262 171.414 39.591L170.416 39.6466L169.417 39.7021C169.381 39.0533 169.337 38.4037 169.286 37.7542L170.283 37.6754ZM170.501 41.6187L171.5 41.5883C171.521 42.2567 171.532 42.9241 171.534 43.5897L170.534 43.5929L169.534 43.5961C169.532 42.9493 169.521 42.3001 169.501 41.6491L170.501 41.6187ZM170.512 45.5694L171.511 45.5959C171.494 46.2664 171.466 46.9344 171.427 47.5989L170.428 47.5402L169.43 47.4816C169.468 46.8394 169.495 46.1929 169.512 45.543L170.512 45.5694ZM170.278 49.5087L171.274 49.6026C171.21 50.2751 171.135 50.9433 171.046 51.6061L170.055 51.4735L169.064 51.341C169.149 50.7049 169.222 50.0626 169.283 49.4148L170.278 49.5087ZM169.752 53.4228L170.737 53.5976C170.619 54.2638 170.486 54.9236 170.338 55.5759L169.363 55.3549L168.388 55.1339C168.528 54.5135 168.655 53.8846 168.768 53.2479L169.752 53.4228ZM168.876 57.2728L169.838 57.5445C169.653 58.2 169.451 58.8466 169.231 59.4832L168.286 59.1566L167.341 58.83C167.548 58.2312 167.739 57.6213 167.914 57.0011L168.876 57.2728ZM167.585 60.9981L168.508 61.3838C168.244 62.0152 167.96 62.6348 167.655 63.2414L166.762 62.7926L165.868 62.3438C166.151 61.7802 166.416 61.2027 166.662 60.6124L167.585 60.9981ZM165.81 64.5231L166.667 65.038C166.315 65.6253 165.94 66.1978 165.541 66.7541L164.728 66.1716L163.915 65.5892C164.281 65.0781 164.627 64.5507 164.953 64.0083L165.81 64.5231ZM163.512 67.7252L164.272 68.3749C163.827 68.8956 163.358 69.3986 162.865 69.8825L162.165 69.1682L161.465 68.4539C161.916 68.0119 162.345 67.5522 162.752 67.0756L163.512 67.7252ZM160.698 70.4817L161.332 71.2556C161.065 71.4741 160.792 71.6876 160.512 71.896L159.914 71.0944L159.316 70.2928C159.572 70.1023 159.821 69.9073 160.065 69.7077L160.698 70.4817ZM159.914 71.0944L160.512 71.896C160.24 72.0988 159.963 72.2975 159.68 72.4921L159.113 71.668L158.547 70.844C158.809 70.6636 159.066 70.4798 159.316 70.2928L159.914 71.0944ZM157.425 72.7408L157.932 73.6029C157.348 73.9461 156.745 74.2748 156.126 74.5892L155.673 73.6974L155.221 72.8057C155.805 72.509 156.371 72.2001 156.918 71.8787L157.425 72.7408ZM153.876 74.5476L154.28 75.4625C153.663 75.7346 153.032 75.9942 152.389 76.2416L152.03 75.3082L151.671 74.3748C152.286 74.1384 152.887 73.8911 153.473 73.6326L153.876 74.5476ZM150.144 75.9859L150.462 76.934C149.828 77.1465 149.184 77.3483 148.531 77.5396L148.25 76.5799L147.969 75.6201C148.598 75.4358 149.218 75.2417 149.826 75.0378L150.144 75.9859ZM146.324 77.1061L146.57 78.0752C145.918 78.2411 145.258 78.3973 144.591 78.5439L144.377 77.5672L144.162 76.5905C144.808 76.4484 145.447 76.2973 146.077 76.1369L146.324 77.1061ZM142.428 77.9645L142.613 78.9472C141.953 79.0716 141.287 79.1872 140.616 79.294L140.459 78.3064L140.302 77.3189C140.954 77.2149 141.602 77.1026 142.243 76.9818L142.428 77.9645ZM138.485 78.5937L138.616 79.5851C137.951 79.6729 137.282 79.7525 136.611 79.824L136.505 78.8297L136.399 77.8353C137.054 77.7655 137.706 77.6879 138.354 77.6023L138.485 78.5937ZM134.515 79.0171L134.597 80.0137C133.928 80.0686 133.258 80.1157 132.586 80.1552L132.527 79.1569L132.468 78.1587C133.125 78.1201 133.78 78.074 134.433 78.0204L134.515 79.0171ZM130.533 79.2514L130.569 80.2507C129.897 80.2749 129.225 80.2917 128.553 80.301L128.539 79.3011L128.525 78.3012C129.182 78.2921 129.84 78.2757 130.497 78.252L130.533 79.2514ZM126.542 79.3071L126.534 80.3071C125.861 80.3018 125.189 80.2891 124.519 80.2693L124.549 79.2697L124.579 78.2702C125.234 78.2896 125.892 78.302 126.55 78.3072L126.542 79.3071ZM122.553 79.1889L122.502 80.1876C121.827 80.1529 121.156 80.1109 120.488 80.0617L120.561 79.0644L120.634 78.0671C121.288 78.1152 121.945 78.1563 122.604 78.1902L122.553 79.1889ZM118.576 78.896L118.481 79.8914C117.805 79.8264 117.134 79.754 116.468 79.6742L116.587 78.6813L116.706 77.6884C117.356 77.7663 118.012 77.8371 118.672 77.9006L118.576 78.896ZM114.612 78.4208L114.47 79.4105C113.797 79.3134 113.131 79.2087 112.473 79.0966L112.641 78.1108L112.809 77.125C113.45 77.2343 114.099 77.3363 114.755 77.431L114.612 78.4208ZM110.673 77.748L110.479 78.7288C109.811 78.5962 109.153 78.4555 108.505 78.3069L108.728 77.3322L108.952 76.3575C109.58 76.5016 110.219 76.6382 110.868 76.7671L110.673 77.748ZM106.791 76.8555L106.536 77.8225C105.868 77.6465 105.214 77.4615 104.574 77.2679L104.863 76.3107L105.153 75.3536C105.769 75.54 106.4 75.7184 107.046 75.8885L106.791 76.8555ZM102.967 75.6953L102.638 76.6398C101.985 76.4127 101.351 76.1755 100.735 75.9283L101.108 75.0004L101.481 74.0725C102.065 74.3073 102.671 74.5335 103.296 74.7509L102.967 75.6953ZM99.2765 74.205L98.8514 75.1102C98.2088 74.8084 97.5928 74.4938 97.0064 74.1664L97.4939 73.2932L97.9813 72.4201C98.5236 72.7229 99.0977 73.0163 99.7015 73.2998L99.2765 74.205ZM95.7929 72.2459L95.2295 73.0721C94.6279 72.6618 94.0678 72.2331 93.5545 71.786L94.2114 71.032L94.8684 70.278C95.316 70.668 95.8126 71.0489 96.3564 71.4197L95.7929 72.2459ZM92.8161 69.6147L92.0463 70.2529C91.5633 69.6703 91.1527 69.0579 90.8271 68.4156L91.7189 67.9634L92.6108 67.5112C92.8618 68.006 93.1868 68.495 93.5859 68.9764L92.8161 69.6147ZM91.0749 66.0821L90.0915 66.2631C89.9551 65.5219 89.9308 64.7606 90.0249 63.9837L91.0177 64.104L92.0104 64.2244C91.9403 64.8028 91.959 65.3609 92.0584 65.9012L91.0749 66.0821ZM91.5155 62.1832L90.585 61.8168C90.8379 61.1748 91.1682 60.5297 91.5761 59.8822L92.4222 60.4151L93.2684 60.948C92.92 61.5012 92.6485 62.0353 92.4459 62.5497L91.5155 62.1832ZM93.5948 58.8146L92.8268 58.174C93.0541 57.9015 93.2953 57.6282 93.5505 57.354L94.2824 58.0354L95.0144 58.7168C94.7827 58.9657 94.5656 59.2118 94.3627 59.4551L93.5948 58.8146ZM94.2824 58.0354L93.5505 57.354C93.7763 57.1115 94.0029 56.873 94.2305 56.6384L94.9483 57.3347L95.6661 58.0309C95.4481 58.2556 95.2309 58.4842 95.0144 58.7168L94.2824 58.0354ZM96.3161 55.9829L95.6288 55.2566C96.1128 54.7986 96.6009 54.3572 97.0931 53.9321L97.7467 54.689L98.4003 55.4458C97.9314 55.8508 97.4658 56.2718 97.0035 56.7093L96.3161 55.9829ZM99.2329 53.4656L98.6162 52.6785C99.1399 52.2681 99.6683 51.8749 100.201 51.4984L100.778 52.3153L101.355 53.1321C100.849 53.4893 100.348 53.8626 99.8497 54.2527L99.2329 53.4656ZM102.379 51.2446L101.845 50.3994C102.406 50.0446 102.972 49.7071 103.543 49.3862L104.033 50.2581L104.523 51.13C103.982 51.4339 103.445 51.7536 102.913 52.0899L102.379 51.2446ZM105.736 49.3591L105.293 48.4628C105.886 48.1694 106.484 47.8926 107.087 47.6318L107.484 48.5497L107.881 49.4676C107.309 49.715 106.742 49.9773 106.18 50.2553L105.736 49.3591ZM109.271 47.8306L108.921 46.8938C109.537 46.6634 110.159 46.4484 110.786 46.2481L111.091 47.2007L111.395 48.1532C110.798 48.344 110.206 48.5485 109.621 48.7673L109.271 47.8306ZM112.939 46.6572L112.679 45.6917C113.311 45.5214 113.948 45.3648 114.59 45.2211L114.809 46.197L115.027 47.1729C114.412 47.3105 113.802 47.4603 113.199 47.6228L112.939 46.6572ZM116.697 45.8145L116.518 44.8307C117.158 44.7142 117.804 44.6094 118.455 44.5155L118.597 45.5052L118.74 46.495C118.113 46.5855 117.492 46.6864 116.876 46.7984L116.697 45.8145ZM120.509 45.2626L120.4 44.2686C121.044 44.1976 121.692 44.1364 122.346 44.0843L122.426 45.0811L122.505 46.078C121.87 46.1286 121.242 46.1879 120.619 46.2565L120.509 45.2626ZM124.349 44.9546L124.296 43.9559C124.941 43.9221 125.59 43.8963 126.245 43.8778L126.273 44.8774L126.301 45.877C125.662 45.8951 125.029 45.9203 124.401 45.9532L124.349 44.9546ZM128.199 44.844L128.192 43.844C128.836 43.8396 129.485 43.8416 130.139 43.8494L130.127 44.8493L130.115 45.8492C129.473 45.8415 128.836 45.8396 128.206 45.844L128.199 44.844ZM132.051 44.8884L132.079 43.8888C132.402 43.8979 132.726 43.9083 133.051 43.9199L133.016 44.9193L132.98 45.9186C132.66 45.9072 132.34 45.897 132.023 45.888L132.051 44.8884ZM133.016 44.9193L133.051 43.9199C133.407 43.9326 133.759 43.9503 134.106 43.9729L134.041 44.9708L133.976 45.9687C133.649 45.9474 133.317 45.9307 132.98 45.9186L133.016 44.9193ZM136.01 45.1591L136.136 44.1671C136.837 44.2566 137.518 44.3678 138.18 44.5004L137.984 45.4809L137.788 46.4615C137.174 46.3385 136.539 46.2347 135.883 46.151L136.01 45.1591ZM139.891 45.9391L140.163 44.9768C140.849 45.1708 141.512 45.3899 142.152 45.6337L141.796 46.5681L141.439 47.5026C140.857 47.2805 140.25 47.0798 139.619 46.9015L139.891 45.9391ZM143.615 47.3623L144.059 46.4664C144.69 46.779 145.294 47.1184 145.872 47.4837L145.337 48.329L144.803 49.1744C144.284 48.8464 143.74 48.5406 143.171 48.2581L143.615 47.3623ZM146.961 49.483L147.584 48.7008C148.135 49.1392 148.656 49.6044 149.15 50.095L148.444 50.8039L147.739 51.5128C147.298 51.0738 146.831 50.6576 146.338 50.2653L146.961 49.483ZM149.773 52.2776L150.55 51.6491C150.988 52.1913 151.398 52.7571 151.78 53.345L150.941 53.8897L150.103 54.4344C149.757 53.9029 149.388 53.3932 148.995 52.9062L149.773 52.2776ZM151.939 55.6024L152.826 55.1406C153.142 55.7481 153.433 56.3746 153.7 57.0186L152.776 57.4011L151.852 57.7836C151.607 57.1914 151.34 56.618 151.052 56.0643L151.939 55.6024ZM153.463 59.2728L154.415 58.9648C154.624 59.6097 154.811 60.2695 154.978 60.943L154.007 61.1831L153.036 61.4231C152.88 60.7934 152.706 60.1791 152.512 59.5809L153.463 59.2728ZM154.421 63.1211L155.404 62.9426C155.525 63.6085 155.628 64.286 155.713 64.9744L154.72 65.0968L153.728 65.2192C153.647 64.5667 153.55 63.9266 153.437 63.2995L154.421 63.1211ZM154.912 67.0691L155.91 66.9969C155.958 67.6647 155.991 68.3416 156.009 69.0267L155.01 69.0534L154.01 69.0801C153.992 68.4241 153.961 67.7776 153.915 67.1412L154.912 67.0691ZM155.021 71.0529L156.021 71.0677C156.011 71.7316 155.988 72.4025 155.953 73.0798L154.954 73.0278L153.956 72.9758C153.99 72.3225 154.011 71.6764 154.021 71.0381L155.021 71.0529ZM154.815 75.0237L155.812 75.1101C155.754 75.7712 155.686 76.4377 155.606 77.109L154.613 76.9913L153.62 76.8737C153.697 76.2225 153.764 75.5768 153.819 74.9372L154.815 75.0237ZM154.349 78.9685L155.338 79.1152C155.241 79.7732 155.133 80.4353 155.016 81.101L154.031 80.9276L153.046 80.7541C153.16 80.1057 153.265 79.4614 153.36 78.8218L154.349 78.9685ZM153.66 82.8837L154.64 83.0822C154.508 83.7349 154.367 84.3907 154.218 85.0491L153.242 84.8273L152.267 84.6056C152.414 83.9623 152.551 83.3221 152.68 82.6853L153.66 82.8837ZM152.779 86.7618L153.749 87.0055C153.587 87.6516 153.416 88.2999 153.238 88.95L152.274 88.6856L151.309 88.4212C151.484 87.7846 151.651 87.1501 151.809 86.5181L152.779 86.7618ZM151.728 90.5981L152.687 90.8821C152.498 91.5209 152.301 92.161 152.098 92.8021L151.145 92.4995L150.192 92.1968C150.391 91.5679 150.584 90.9403 150.769 90.3141L151.728 90.5981ZM150.525 94.3899L151.472 94.7104C151.258 95.3414 151.038 95.9729 150.812 96.6048L149.87 96.2672L148.929 95.9296C149.152 95.309 149.368 94.6888 149.577 94.0694L150.525 94.3899ZM149.182 98.1348L150.117 98.4889C149.881 99.1118 149.639 99.7347 149.392 100.357L148.462 99.9872L147.533 99.6172C147.777 99.0052 148.015 98.3929 148.247 97.7808L149.182 98.1348ZM147.71 101.831L148.633 102.216C148.376 102.831 148.114 103.445 147.846 104.058L146.93 103.658L146.013 103.257C146.277 102.654 146.535 102.05 146.788 101.445L147.71 101.831ZM146.117 105.476L147.027 105.891C146.75 106.498 146.468 107.103 146.181 107.707L145.278 107.277L144.375 106.847C144.658 106.253 144.935 105.658 145.208 105.061L146.117 105.476ZM144.409 109.068L145.305 109.512C145.009 110.11 144.708 110.706 144.402 111.3L143.513 110.842L142.624 110.385C142.925 109.8 143.221 109.213 143.513 108.624L144.409 109.068ZM142.589 112.604L143.471 113.075C143.155 113.665 142.836 114.252 142.511 114.836L141.637 114.351L140.763 113.865C141.082 113.29 141.397 112.712 141.707 112.132L142.589 112.604ZM140.659 116.081L141.525 116.58C141.191 117.16 140.853 117.737 140.511 118.311L139.652 117.798L138.793 117.286C139.13 116.721 139.463 116.153 139.792 115.582L140.659 116.081ZM138.62 119.496L139.47 120.023C139.117 120.593 138.76 121.159 138.4 121.721L137.558 121.18L136.716 120.64C137.071 120.088 137.422 119.531 137.769 118.97L138.62 119.496ZM136.471 122.844L137.303 123.398C136.932 123.957 136.556 124.511 136.177 125.06L135.354 124.492L134.531 123.923C134.904 123.384 135.273 122.839 135.638 122.29L136.471 122.844ZM134.21 126.118L135.023 126.7C134.632 127.246 134.238 127.787 133.84 128.321L133.038 127.724L132.235 127.128C132.626 126.603 133.013 126.072 133.397 125.536L134.21 126.118ZM131.835 129.31L132.626 129.921C132.215 130.453 131.801 130.978 131.383 131.497L130.604 130.87L129.825 130.243C130.234 129.735 130.641 129.219 131.044 128.698L131.835 129.31ZM129.341 132.409L130.107 133.051C129.675 133.567 129.239 134.075 128.801 134.576L128.048 133.918L127.296 133.259C127.725 132.769 128.151 132.271 128.574 131.766L129.341 132.409ZM126.721 135.401L127.458 136.077C127.003 136.574 126.544 137.063 126.083 137.544L125.362 136.852L124.64 136.159C125.09 135.69 125.538 135.213 125.983 134.726L126.721 135.401ZM123.967 138.27L124.671 138.981C124.434 139.215 124.197 139.448 123.959 139.678L123.264 138.959L122.569 138.239C122.801 138.016 123.032 137.789 123.263 137.56L123.967 138.27ZM123.264 138.959L123.959 139.678C123.719 139.909 123.479 140.14 123.239 140.369L122.549 139.645L121.859 138.921C122.096 138.695 122.333 138.468 122.569 138.239L123.264 138.959ZM121.108 141L121.789 141.733C121.302 142.184 120.813 142.632 120.322 143.075L119.652 142.333L118.982 141.591C119.466 141.154 119.948 140.712 120.428 140.267L121.108 141ZM118.175 143.649L118.835 144.4C118.337 144.839 117.836 145.272 117.334 145.702L116.684 144.942L116.034 144.182C116.529 143.758 117.023 143.33 117.515 142.898L118.175 143.649ZM115.171 146.218L115.81 146.987C115.3 147.411 114.788 147.831 114.274 148.247L113.645 147.47L113.016 146.692C113.523 146.282 114.028 145.868 114.531 145.45L115.171 146.218ZM112.098 148.704L112.716 149.49C112.195 149.901 111.671 150.307 111.146 150.709L110.538 149.915L109.931 149.12C110.449 148.724 110.965 148.323 111.48 147.918L112.098 148.704ZM108.959 151.106L109.555 151.908C109.023 152.304 108.488 152.696 107.951 153.084L107.366 152.274L106.78 151.463C107.309 151.081 107.837 150.694 108.362 150.303L108.959 151.106ZM105.755 153.421L106.33 154.239C105.787 154.621 105.241 154.998 104.694 155.371L104.13 154.545L103.567 153.719C104.107 153.351 104.645 152.979 105.181 152.602L105.755 153.421ZM102.49 155.648L103.042 156.482C102.489 156.848 101.933 157.211 101.376 157.569L100.835 156.728L100.294 155.887C100.844 155.533 101.392 155.176 101.938 154.814L102.49 155.648ZM99.1656 157.786L99.6952 158.634C99.132 158.986 98.5669 159.333 98 159.677L97.4818 158.821L96.9637 157.966C97.523 157.627 98.0805 157.284 98.6361 156.938L99.1656 157.786ZM95.785 159.834L96.2917 160.696C95.7194 161.032 95.1452 161.365 94.5692 161.693L94.074 160.824L93.5788 159.955C94.1472 159.631 94.7137 159.304 95.2783 158.972L95.785 159.834ZM92.351 161.791L92.8347 162.666C92.2537 162.987 91.671 163.304 91.0865 163.617L90.6144 162.736L90.1423 161.854C90.7191 161.545 91.2941 161.233 91.8673 160.916L92.351 161.791ZM88.8665 163.657L89.3271 164.545C88.7381 164.851 88.1474 165.152 87.5549 165.45L87.1059 164.556L86.6569 163.663C87.2417 163.369 87.8247 163.071 88.406 162.77L88.8665 163.657ZM85.3347 165.432L85.7722 166.332C85.1756 166.622 84.5774 166.908 83.9775 167.19L83.5516 166.286L83.1256 165.381C83.7178 165.102 84.3084 164.82 84.8972 164.533L85.3347 165.432ZM81.7584 167.116L82.1728 168.026C81.5693 168.301 80.9642 168.572 80.3574 168.839L79.9544 167.924L79.5514 167.009C80.1505 166.745 80.748 166.477 81.3439 166.206L81.7584 167.116ZM78.1406 168.709L78.5322 169.629C77.9223 169.889 77.3107 170.145 76.6976 170.397L76.3174 169.472L75.9372 168.547C76.5427 168.298 77.1467 168.046 77.7491 167.789L78.1406 168.709ZM74.4846 170.212L74.8535 171.142C74.2375 171.386 73.62 171.627 73.001 171.864L72.6434 170.93L72.2858 169.996C72.8973 169.762 73.5073 169.524 74.1158 169.283L74.4846 170.212ZM70.7932 171.626L71.1396 172.564C70.5181 172.794 69.8951 173.019 69.2706 173.242L68.9354 172.299L68.6001 171.357C69.2172 171.138 69.8327 170.915 70.4468 170.688L70.7932 171.626ZM67.0692 172.951L67.3934 173.897C66.7668 174.112 66.1388 174.323 65.5093 174.531L65.1961 173.581L64.8829 172.631C65.505 172.426 66.1257 172.217 66.745 172.005L67.0692 172.951ZM63.3154 174.189L63.6177 175.143C62.9864 175.343 62.3538 175.54 61.7198 175.733L61.4282 174.776L61.1367 173.82C61.7635 173.629 62.389 173.434 63.0131 173.236L63.3154 174.189ZM59.5344 175.342L59.8152 176.302C59.1796 176.488 58.5427 176.67 57.9046 176.849L57.6344 175.886L57.3642 174.924C57.9953 174.747 58.6251 174.566 59.2536 174.382L59.5344 175.342ZM55.7287 176.41L55.9884 177.376C55.349 177.548 54.7082 177.716 54.0663 177.882L53.817 176.913L53.5677 175.945C54.2028 175.781 54.8365 175.614 55.469 175.444L55.7287 176.41ZM51.9008 177.396L52.1398 178.367C51.4968 178.525 50.8526 178.68 50.2073 178.831L49.9785 177.858L49.7497 176.884C50.3883 176.734 51.0256 176.581 51.6618 176.425L51.9008 177.396ZM48.0529 178.3L48.2716 179.276C47.6254 179.421 46.9782 179.562 46.3299 179.701L46.1211 178.723L45.9124 177.745C46.5541 177.608 47.1947 177.468 47.8342 177.324L48.0529 178.3ZM44.1872 179.125L44.386 180.105C43.7371 180.237 43.0871 180.366 42.436 180.491L42.2469 179.509L42.0577 178.527C42.7023 178.403 43.3458 178.276 43.9883 178.145L44.1872 179.125ZM40.3057 179.873L40.4852 180.857C39.8339 180.976 39.1816 181.091 38.5284 181.204L38.3583 180.219L38.1883 179.233C38.8353 179.122 39.4812 179.007 40.1261 178.889L40.3057 179.873ZM36.4103 180.545L36.571 181.532C35.9177 181.639 35.2636 181.742 34.6085 181.842L34.4571 180.854L34.3057 179.865C34.9547 179.766 35.6027 179.664 36.2497 179.558L36.4103 180.545ZM32.5029 181.144L32.6451 182.134C31.9902 182.228 31.3345 182.319 30.6778 182.407L30.5446 181.416L30.4114 180.425C31.0621 180.337 31.7118 180.247 32.3607 180.154L32.5029 181.144ZM28.5851 181.67L28.7094 182.663C28.0531 182.745 27.396 182.824 26.7382 182.901L26.6227 181.907L26.5071 180.914C27.1592 180.838 27.8104 180.76 28.4608 180.678L28.5851 181.67ZM24.6584 182.127L24.7653 183.121C24.1079 183.192 23.4498 183.26 22.7909 183.325L22.6926 182.33L22.5943 181.335C23.2475 181.27 23.8999 181.203 24.5516 181.133L24.6584 182.127ZM20.7243 182.516L20.8142 183.512C20.156 183.571 19.497 183.628 18.8373 183.682L18.7558 182.685L18.6742 181.688C19.3284 181.635 19.9818 181.579 20.6345 181.52L20.7243 182.516ZM16.7842 182.838L16.8576 183.836C16.1987 183.884 15.5391 183.93 14.8789 183.973L14.8136 182.975L14.7483 181.977C15.4031 181.935 16.0573 181.889 16.7108 181.841L16.7842 182.838ZM12.8392 183.097L12.8965 184.095C12.2372 184.133 11.5772 184.168 10.9166 184.201L10.8671 183.202L10.8176 182.203C11.473 182.171 12.1278 182.136 12.7819 182.098L12.8392 183.097ZM8.89142 183.292L8.93318 184.291C8.27323 184.319 7.61272 184.344 6.95168 184.367L6.91753 183.367L6.88338 182.368C7.53939 182.345 8.19483 182.32 8.84967 182.293L8.89142 183.292ZM4.94118 183.427L4.96781 184.427C4.30737 184.444 3.64644 184.46 2.98502 184.472L2.96579 183.473L2.94655 182.473C3.60308 182.46 4.25908 182.445 4.91454 182.428L4.94118 183.427Z" fill="black"/>
</svg>
