<svg width="250" height="250" viewBox="0 0 250 250" fill="none" xmlns="http://www.w3.org/2000/svg">
<path d="M224.583 111.875L210.417 95.4167C207.708 92.2917 205.521 86.4584 205.521 82.2917V64.5834C205.521 53.5417 196.458 44.4792 185.417 44.4792H167.708C163.646 44.4792 157.708 42.2917 154.583 39.5834L138.125 25.4167C130.938 19.2709 119.167 19.2709 111.875 25.4167L95.5209 39.6875C92.3959 42.2917 86.4584 44.4792 82.3959 44.4792H64.3751C53.3334 44.4792 44.2709 53.5417 44.2709 64.5834V82.3959C44.2709 86.4584 42.0834 92.2917 39.4792 95.4167L25.4167 111.979C19.3751 119.167 19.3751 130.833 25.4167 138.021L39.4792 154.583C42.0834 157.708 44.2709 163.542 44.2709 167.604V185.417C44.2709 196.458 53.3334 205.521 64.3751 205.521H82.3959C86.4584 205.521 92.3959 207.708 95.5209 210.417L111.979 224.583C119.167 230.729 130.938 230.729 138.229 224.583L154.688 210.417C157.813 207.708 163.646 205.521 167.813 205.521H185.521C196.563 205.521 205.625 196.458 205.625 185.417V167.708C205.625 163.646 207.813 157.708 210.521 154.583L224.688 138.125C230.729 130.938 230.729 119.063 224.583 111.875ZM168.333 105.313L118.021 155.625C116.563 157.083 114.583 157.917 112.5 157.917C110.417 157.917 108.438 157.083 106.979 155.625L81.7709 130.417C78.7501 127.396 78.7501 122.396 81.7709 119.375C84.7917 116.354 89.7917 116.354 92.8126 119.375L112.5 139.063L157.292 94.2709C160.313 91.25 165.313 91.25 168.333 94.2709C171.354 97.2917 171.354 102.292 168.333 105.313Z" fill="#10B981"/>
</svg>
