<svg width="148" height="148" viewBox="0 0 148 148" fill="none" xmlns="http://www.w3.org/2000/svg">
<rect width="148" height="148" rx="74" fill="#F5F5F5"/>
<path d="M118.518 110.269C118.518 113.18 117.338 115.814 115.43 117.722C113.522 119.63 110.888 120.811 107.976 120.811H58.8514C61.7627 120.811 64.3971 119.63 66.3048 117.722C68.2125 115.814 69.3934 113.18 69.3934 110.269C69.3934 104.446 64.6739 99.7266 58.8514 99.7266H107.976C113.799 99.7266 118.518 104.446 118.518 110.269Z" fill="#EBEBEB" stroke="#A4A4A4" stroke-linecap="round" stroke-linejoin="round"/>
<path d="M75.7264 96.6204C77.6341 98.5281 80.2685 99.7091 83.1798 99.7091H34.0557C31.1444 99.7091 28.51 98.5281 26.6023 96.6204C24.6946 94.7127 23.5137 92.0783 23.5137 89.1671C23.5137 83.3445 28.2331 78.625 34.0557 78.625H83.1798C77.3572 78.625 72.6377 83.3445 72.6377 89.1671C72.6377 92.0784 73.8187 94.7127 75.7264 96.6204Z" fill="#EBEBEB" stroke="#A4A4A4" stroke-linecap="round" stroke-linejoin="round"/>
<path d="M66.6854 110.078V110.459C66.6854 115.057 62.9566 118.786 58.3582 118.786H25.4214V101.751H58.3582C62.9566 101.751 66.6854 105.48 66.6854 110.078Z" fill="white" stroke="#A4A4A4" stroke-linecap="round" stroke-linejoin="round"/>
<path d="M69.3934 110.268C69.3934 113.179 68.2124 115.813 66.3047 117.721C64.397 119.629 61.7626 120.81 58.8513 120.81H23.5137V118.785H58.3582C62.9565 118.785 66.6854 115.056 66.6854 110.458V110.077C66.6854 105.479 62.9565 101.75 58.3582 101.75H23.5137V99.7256H58.8513C64.6739 99.7256 69.3934 104.445 69.3934 110.268Z" fill="#D1D1D1" stroke="#A4A4A4" stroke-linecap="round" stroke-linejoin="round"/>
<path d="M116.609 80.6534V97.6841H83.6727C79.0743 97.6841 75.3455 93.9596 75.3455 89.3612V88.9762C75.3455 84.3779 79.0743 80.6533 83.6727 80.6533L116.609 80.6534Z" fill="white" stroke="#A4A4A4" stroke-linecap="round" stroke-linejoin="round"/>
<path d="M75.3457 88.9767V89.3617C75.3457 93.96 79.0746 97.6846 83.6729 97.6846H118.517V99.7091H83.1798C80.2685 99.7091 77.6341 98.5282 75.7264 96.6205C73.8187 94.7128 72.6378 92.0784 72.6378 89.1671C72.6378 83.3445 77.3572 78.625 83.1798 78.625H118.517V80.6538H83.6729C79.0746 80.6538 75.3457 84.3783 75.3457 88.9767Z" fill="#D1D1D1" stroke="#A4A4A4" stroke-linecap="round" stroke-linejoin="round"/>
<path d="M48.9997 125.832L44.4011 121.481L39.8025 125.832V111.812H48.9997V125.832Z" fill="#D1D1D1" stroke="#A4A4A4" stroke-linecap="round" stroke-linejoin="round"/>
<path d="M20.3145 71.0879C20.3145 71.0879 14.3144 71.1083 14.3144 77.0879C14.3144 71.1083 8.31445 71.0879 8.31445 71.0879C8.31445 71.0879 14.3144 71.0675 14.3144 65.0879C14.3144 71.0675 20.3145 71.0879 20.3145 71.0879Z" stroke="#A4A4A4" stroke-linecap="round" stroke-linejoin="round"/>
<path d="M88.3145 13.0879C88.3145 13.0879 82.3144 13.1083 82.3144 19.0879C82.3144 13.1083 76.3145 13.0879 76.3145 13.0879C76.3145 13.0879 82.3144 13.0675 82.3144 7.08789C82.3144 13.0675 88.3145 13.0879 88.3145 13.0879Z" stroke="#A4A4A4" stroke-linecap="round" stroke-linejoin="round"/>
<rect x="32.5952" y="29.2461" width="76.8417" height="49.3787" rx="3.81443" fill="white" stroke="#A4A4A4" stroke-linecap="round" stroke-linejoin="round"/>
<circle cx="49.2374" cy="48.0759" r="10.2507" fill="white" stroke="#A4A4A4" stroke-miterlimit="10"/>
<path fill-rule="evenodd" clip-rule="evenodd" d="M42.654 55.9331C42.9637 52.5694 45.7929 49.9353 49.2375 49.9353C52.6819 49.9353 55.5112 52.5693 55.8209 55.933C54.04 57.4268 51.7437 58.3263 49.2374 58.3263C46.7311 58.3263 44.4349 57.4268 42.654 55.9331ZM52.3144 46.0879C52.3144 47.7447 50.9712 49.0879 49.3144 49.0879C47.6575 49.0879 46.3144 47.7447 46.3144 46.0879C46.3144 44.431 47.6575 43.0879 49.3144 43.0879C50.9712 43.0879 52.3144 44.431 52.3144 46.0879Z" fill="#A4A4A4"/>
<path d="M42.654 55.9331L42.1561 55.8873C42.1411 56.0505 42.207 56.2108 42.3327 56.3162L42.654 55.9331ZM55.8209 55.933L56.1422 56.3161C56.2679 56.2107 56.3338 56.0504 56.3188 55.8872L55.8209 55.933ZM49.2375 49.9353V49.4353C45.5322 49.4353 42.4892 52.2686 42.1561 55.8873L42.654 55.9331L43.1519 55.9789C43.4381 52.8701 46.0537 50.4353 49.2375 50.4353V49.9353ZM55.8209 55.933L56.3188 55.8872C55.9856 52.2686 52.9427 49.4353 49.2375 49.4353V49.9353V50.4353C52.4212 50.4353 55.0368 52.8701 55.323 55.9788L55.8209 55.933ZM55.8209 55.933L55.4996 55.5499C53.8053 56.971 51.6219 57.8263 49.2374 57.8263V58.3263V58.8263C51.8656 58.8263 54.2746 57.8826 56.1422 56.3161L55.8209 55.933ZM49.2374 58.3263V57.8263C46.8529 57.8263 44.6696 56.971 42.9753 55.55L42.654 55.9331L42.3327 56.3162C44.2003 57.8826 46.6093 58.8263 49.2374 58.8263V58.3263ZM49.3144 49.0879V49.5879C51.2473 49.5879 52.8144 48.0209 52.8144 46.0879H52.3144H51.8144C51.8144 47.4686 50.6951 48.5879 49.3144 48.5879V49.0879ZM46.3144 46.0879H45.8144C45.8144 48.0209 47.3814 49.5879 49.3144 49.5879V49.0879V48.5879C47.9336 48.5879 46.8144 47.4686 46.8144 46.0879H46.3144ZM49.3144 43.0879V42.5879C47.3814 42.5879 45.8144 44.1549 45.8144 46.0879H46.3144H46.8144C46.8144 44.7072 47.9336 43.5879 49.3144 43.5879V43.0879ZM52.3144 46.0879H52.8144C52.8144 44.1549 51.2473 42.5879 49.3144 42.5879V43.0879V43.5879C50.6951 43.5879 51.8144 44.7072 51.8144 46.0879H52.3144Z" fill="#A4A4A4"/>
<rect x="64.6885" y="41.291" width="33.5418" height="4.02084" rx="0.762887" fill="#EBEBEB"/>
<rect x="39.096" y="64.0195" width="33.5418" height="4.02084" rx="0.762887" fill="#EBEBEB"/>
<rect x="64.6885" y="49.5815" width="33.5418" height="4.02084" rx="0.762887" fill="#EBEBEB"/>
<rect x="83.1801" y="35.6387" width="43.5706" height="35.3356" rx="3.81443" fill="#EBEBEB" stroke="#A4A4A4" stroke-linecap="round" stroke-linejoin="round"/>
<path d="M92.8799 47.34L96.1247 50.5633L92.7868 53.9235C92.4464 54.2661 92.4483 54.8198 92.7909 55.1602C93.1336 55.5005 93.6873 55.4987 94.0276 55.1561L97.9819 51.1755C98.3223 50.8329 98.3204 50.2792 97.9778 49.9388L94.1125 46.0991C93.7699 45.7588 93.2162 45.7606 92.8758 46.1032C92.5354 46.4459 92.5373 46.9996 92.8799 47.34Z" fill="#A4A4A4"/>
<path d="M116.847 46.0236L113.008 49.8888C112.845 50.0522 112.753 50.2777 112.754 50.508C112.754 50.7383 112.848 50.9632 113.012 51.1255L116.992 55.0797C117.335 55.4201 117.889 55.4183 118.229 55.0756C118.569 54.733 118.567 54.1793 118.225 53.8389L114.865 50.501L118.088 47.2562C118.429 46.9136 118.427 46.3599 118.084 46.0195C117.741 45.6792 117.188 45.681 116.847 46.0236Z" fill="#A4A4A4"/>
<path d="M99.3009 61.8531L111.775 61.8118C112.258 61.8102 112.649 61.4174 112.647 60.9344C112.645 60.4514 112.253 60.0612 111.77 60.0628L99.2951 60.1041C98.8121 60.1057 98.4219 60.4986 98.4235 60.9815C98.4251 61.4645 98.8179 61.8547 99.3009 61.8531Z" fill="#A4A4A4"/>
</svg>
