<svg width="278" height="325" viewBox="0 0 278 325" fill="none" xmlns="http://www.w3.org/2000/svg">
<rect width="277.879" height="324.705" rx="13.8363" fill="white"/>
<rect x="0.392189" y="0.392189" width="277.095" height="323.92" rx="13.4441" stroke="#2D2D2D" stroke-opacity="0.3" stroke-width="0.784379"/>
<path d="M14.8951 30.3666V20.5666H16.0151L16.5051 22.4146V30.3666H14.8951ZM21.6851 30.3666L15.8191 22.7086L16.0151 20.5666L21.8811 28.2246L21.6851 30.3666ZM21.6851 30.3666L21.1951 28.6446V20.5666H22.8051V30.3666H21.6851ZM24.9302 30.3666V20.5666H26.5402V30.3666H24.9302ZM26.0362 26.1666V24.6966H31.0202V26.1666H26.0362ZM26.0362 22.0366V20.5666H31.2582V22.0366H26.0362ZM37.1752 30.5066C36.4658 30.5066 35.8078 30.3806 35.2012 30.1286C34.6038 29.8672 34.0812 29.5079 33.6332 29.0506C33.1852 28.5839 32.8398 28.0472 32.5972 27.4406C32.3545 26.8246 32.2332 26.1666 32.2332 25.4666C32.2332 24.7666 32.3545 24.1132 32.5972 23.5066C32.8398 22.8906 33.1852 22.3539 33.6332 21.8966C34.0812 21.4392 34.6038 21.0799 35.2012 20.8186C35.8078 20.5572 36.4658 20.4266 37.1752 20.4266C37.9685 20.4266 38.6545 20.5572 39.2332 20.8186C39.8118 21.0799 40.3252 21.4346 40.7732 21.8826L39.6812 22.9746C39.3918 22.6572 39.0372 22.4099 38.6172 22.2326C38.2065 22.0552 37.7258 21.9666 37.1752 21.9666C36.6898 21.9666 36.2465 22.0506 35.8452 22.2186C35.4438 22.3866 35.0938 22.6292 34.7952 22.9466C34.5058 23.2546 34.2818 23.6232 34.1232 24.0526C33.9645 24.4819 33.8852 24.9532 33.8852 25.4666C33.8852 25.9799 33.9645 26.4512 34.1232 26.8806C34.2818 27.3099 34.5058 27.6832 34.7952 28.0006C35.0938 28.3086 35.4438 28.5466 35.8452 28.7146C36.2465 28.8826 36.6898 28.9666 37.1752 28.9666C37.7725 28.9666 38.2765 28.8779 38.6872 28.7006C39.1072 28.5139 39.4618 28.2619 39.7512 27.9446L40.8432 29.0366C40.3952 29.4939 39.8678 29.8532 39.2612 30.1146C38.6545 30.3759 37.9592 30.5066 37.1752 30.5066ZM47.8126 30.5066C47.0379 30.5066 46.3799 30.3666 45.8386 30.0866C45.2972 29.8066 44.8119 29.3959 44.3826 28.8546L45.4746 27.7626C45.7452 28.1546 46.0672 28.4626 46.4406 28.6866C46.8139 28.9012 47.2899 29.0086 47.8686 29.0086C48.4099 29.0086 48.8392 28.8966 49.1566 28.6726C49.4832 28.4486 49.6466 28.1406 49.6466 27.7486C49.6466 27.4219 49.5626 27.1559 49.3946 26.9506C49.2266 26.7452 49.0026 26.5772 48.7226 26.4466C48.4519 26.3066 48.1486 26.1852 47.8126 26.0826C47.4859 25.9706 47.1546 25.8492 46.8186 25.7186C46.4919 25.5786 46.1886 25.4059 45.9086 25.2006C45.6379 24.9952 45.4186 24.7292 45.2506 24.4026C45.0826 24.0759 44.9986 23.6606 44.9986 23.1566C44.9986 22.5779 45.1386 22.0879 45.4186 21.6866C45.7079 21.2759 46.0952 20.9632 46.5806 20.7486C47.0659 20.5339 47.6072 20.4266 48.2046 20.4266C48.8486 20.4266 49.4226 20.5526 49.9266 20.8046C50.4399 21.0566 50.8552 21.3786 51.1726 21.7706L50.0806 22.8626C49.8006 22.5452 49.5066 22.3119 49.1986 22.1626C48.8999 22.0039 48.5546 21.9246 48.1626 21.9246C47.6772 21.9246 47.2946 22.0226 47.0146 22.2186C46.7439 22.4146 46.6086 22.6899 46.6086 23.0446C46.6086 23.3432 46.6926 23.5859 46.8606 23.7726C47.0286 23.9499 47.2479 24.1039 47.5186 24.2346C47.7986 24.3559 48.1019 24.4726 48.4286 24.5846C48.7646 24.6966 49.0959 24.8226 49.4226 24.9626C49.7586 25.1026 50.0619 25.2846 50.3326 25.5086C50.6126 25.7232 50.8366 26.0032 51.0046 26.3486C51.1726 26.6939 51.2566 27.1279 51.2566 27.6506C51.2566 28.5279 50.9439 29.2232 50.3186 29.7366C49.7026 30.2499 48.8672 30.5066 47.8126 30.5066ZM55.6638 30.5066C55.0012 30.5066 54.3992 30.3526 53.8578 30.0446C53.3258 29.7366 52.9058 29.3166 52.5978 28.7846C52.2898 28.2526 52.1358 27.6599 52.1358 27.0066C52.1358 26.3439 52.2898 25.7512 52.5978 25.2286C52.9058 24.6966 53.3258 24.2766 53.8578 23.9686C54.3992 23.6606 55.0012 23.5066 55.6638 23.5066C56.1865 23.5066 56.6718 23.6092 57.1198 23.8146C57.5772 24.0106 57.9645 24.2952 58.2818 24.6686L57.2738 25.6906C57.0778 25.4572 56.8398 25.2846 56.5598 25.1726C56.2892 25.0512 55.9905 24.9906 55.6638 24.9906C55.2812 24.9906 54.9405 25.0792 54.6418 25.2566C54.3525 25.4246 54.1238 25.6579 53.9558 25.9566C53.7972 26.2552 53.7178 26.6052 53.7178 27.0066C53.7178 27.3986 53.7972 27.7486 53.9558 28.0566C54.1238 28.3552 54.3525 28.5932 54.6418 28.7706C54.9405 28.9386 55.2812 29.0226 55.6638 29.0226C55.9905 29.0226 56.2892 28.9666 56.5598 28.8546C56.8398 28.7332 57.0778 28.5559 57.2738 28.3226L58.2818 29.3446C57.9645 29.7179 57.5772 30.0072 57.1198 30.2126C56.6718 30.4086 56.1865 30.5066 55.6638 30.5066ZM62.0694 30.5066C61.4627 30.5066 60.912 30.3526 60.4174 30.0446C59.932 29.7366 59.5447 29.3212 59.2554 28.7986C58.9754 28.2666 58.8354 27.6739 58.8354 27.0206C58.8354 26.3579 58.9754 25.7652 59.2554 25.2426C59.5447 24.7106 59.932 24.2906 60.4174 23.9826C60.912 23.6652 61.4627 23.5066 62.0694 23.5066C62.5827 23.5066 63.0354 23.6186 63.4274 23.8426C63.8287 24.0572 64.146 24.3559 64.3794 24.7386C64.6127 25.1212 64.7294 25.5552 64.7294 26.0406V27.9726C64.7294 28.4579 64.6127 28.8919 64.3794 29.2746C64.1554 29.6572 63.8427 29.9606 63.4414 30.1846C63.04 30.3992 62.5827 30.5066 62.0694 30.5066ZM62.3214 29.0506C62.8907 29.0506 63.348 28.8592 63.6934 28.4766C64.048 28.0939 64.2254 27.6039 64.2254 27.0066C64.2254 26.6052 64.146 26.2506 63.9874 25.9426C63.8287 25.6346 63.6047 25.3966 63.3154 25.2286C63.0354 25.0512 62.704 24.9626 62.3214 24.9626C61.948 24.9626 61.6167 25.0512 61.3274 25.2286C61.0474 25.3966 60.8234 25.6346 60.6554 25.9426C60.4967 26.2506 60.4174 26.6052 60.4174 27.0066C60.4174 27.4079 60.4967 27.7626 60.6554 28.0706C60.8234 28.3786 61.0474 28.6212 61.3274 28.7986C61.6167 28.9666 61.948 29.0506 62.3214 29.0506ZM64.1274 30.3666V28.5606L64.3934 26.9226L64.1274 25.2986V23.6466H65.6674V30.3666H64.1274ZM71.9825 30.3666V26.4886C71.9825 26.0406 71.8378 25.6719 71.5485 25.3826C71.2685 25.0932 70.9045 24.9486 70.4565 24.9486C70.1578 24.9486 69.8918 25.0139 69.6585 25.1446C69.4251 25.2752 69.2431 25.4572 69.1125 25.6906C68.9818 25.9239 68.9165 26.1899 68.9165 26.4886L68.3145 26.1526C68.3145 25.6392 68.4265 25.1866 68.6505 24.7946C68.8745 24.3932 69.1825 24.0806 69.5745 23.8566C69.9758 23.6232 70.4238 23.5066 70.9185 23.5066C71.4225 23.5066 71.8705 23.6372 72.2625 23.8986C72.6545 24.1506 72.9625 24.4819 73.1865 24.8926C73.4105 25.2939 73.5225 25.7139 73.5225 26.1526V30.3666H71.9825ZM67.3765 30.3666V23.6466H68.9165V30.3666H67.3765ZM79.6934 30.3666V26.4886C79.6934 26.0406 79.5487 25.6719 79.2594 25.3826C78.9794 25.0932 78.6154 24.9486 78.1674 24.9486C77.8687 24.9486 77.6027 25.0139 77.3694 25.1446C77.1361 25.2752 76.9541 25.4572 76.8234 25.6906C76.6927 25.9239 76.6274 26.1899 76.6274 26.4886L76.0254 26.1526C76.0254 25.6392 76.1374 25.1866 76.3614 24.7946C76.5854 24.3932 76.8934 24.0806 77.2854 23.8566C77.6867 23.6232 78.1347 23.5066 78.6294 23.5066C79.1334 23.5066 79.5814 23.6372 79.9734 23.8986C80.3654 24.1506 80.6734 24.4819 80.8974 24.8926C81.1214 25.2939 81.2334 25.7139 81.2334 26.1526V30.3666H79.6934ZM75.0874 30.3666V23.6466H76.6274V30.3666H75.0874ZM85.9203 30.5066C85.2483 30.5066 84.6417 30.3572 84.1003 30.0586C83.5683 29.7506 83.1437 29.3306 82.8263 28.7986C82.5183 28.2666 82.3643 27.6692 82.3643 27.0066C82.3643 26.3439 82.5183 25.7512 82.8263 25.2286C83.1343 24.6966 83.5497 24.2766 84.0723 23.9686C84.6043 23.6606 85.1923 23.5066 85.8363 23.5066C86.4617 23.5066 87.0123 23.6512 87.4883 23.9406C87.9737 24.2299 88.3517 24.6266 88.6223 25.1306C88.9023 25.6346 89.0423 26.2086 89.0423 26.8526C89.0423 26.9646 89.033 27.0812 89.0143 27.2026C89.005 27.3146 88.9863 27.4406 88.9583 27.5806H83.4423V26.3206H88.1603L87.5863 26.8246C87.5677 26.4139 87.4883 26.0686 87.3483 25.7886C87.2083 25.5086 87.0077 25.2939 86.7463 25.1446C86.4943 24.9952 86.1817 24.9206 85.8083 24.9206C85.4163 24.9206 85.0757 25.0046 84.7863 25.1726C84.497 25.3406 84.273 25.5786 84.1143 25.8866C83.9557 26.1852 83.8763 26.5446 83.8763 26.9646C83.8763 27.3846 83.9603 27.7532 84.1283 28.0706C84.2963 28.3879 84.5343 28.6352 84.8423 28.8126C85.1503 28.9806 85.505 29.0646 85.9063 29.0646C86.2517 29.0646 86.569 29.0039 86.8583 28.8826C87.157 28.7612 87.409 28.5839 87.6143 28.3506L88.5943 29.3446C88.2677 29.7272 87.871 30.0166 87.4043 30.2126C86.9377 30.4086 86.443 30.5066 85.9203 30.5066ZM90.2769 30.3666V23.6466H91.8169V30.3666H90.2769ZM91.8169 26.6286L91.2849 26.3626C91.2849 25.5132 91.4715 24.8272 91.8449 24.3046C92.2275 23.7726 92.8015 23.5066 93.5669 23.5066C93.9029 23.5066 94.2062 23.5672 94.4769 23.6886C94.7475 23.8099 94.9995 24.0059 95.2329 24.2766L94.2249 25.3126C94.1035 25.1819 93.9682 25.0886 93.8189 25.0326C93.6695 24.9766 93.4969 24.9486 93.3009 24.9486C92.8715 24.9486 92.5169 25.0839 92.2369 25.3546C91.9569 25.6252 91.8169 26.0499 91.8169 26.6286Z" fill="#2D2D2D"/>
<rect x="201.785" y="13.8363" width="62.2633" height="23.0605" rx="11.5302" fill="#10B981"/>
<path d="M212.477 29.8666C212.402 29.8666 212.337 29.8386 212.281 29.7826C212.225 29.7266 212.197 29.6612 212.197 29.5866C212.197 29.5399 212.201 29.4886 212.211 29.4326L215.683 20.3746C215.72 20.2812 215.771 20.2066 215.837 20.1506C215.902 20.0946 216 20.0666 216.131 20.0666H217.083C217.204 20.0666 217.297 20.0946 217.363 20.1506C217.437 20.2066 217.493 20.2812 217.531 20.3746L220.989 29.4326C221.007 29.4886 221.017 29.5399 221.017 29.5866C221.017 29.6612 220.989 29.7266 220.933 29.7826C220.877 29.8386 220.811 29.8666 220.737 29.8666H220.023C219.911 29.8666 219.827 29.8386 219.771 29.7826C219.724 29.7266 219.691 29.6752 219.673 29.6286L218.903 27.6406H214.311L213.541 29.6286C213.531 29.6752 213.499 29.7266 213.443 29.7826C213.387 29.8386 213.303 29.8666 213.191 29.8666H212.477ZM214.717 26.4366H218.497L216.607 21.4666L214.717 26.4366ZM225.189 30.0066C224.527 30.0066 223.953 29.8806 223.467 29.6286C222.991 29.3672 222.623 28.9986 222.361 28.5226C222.1 28.0372 221.96 27.4586 221.941 26.7866C221.932 26.6466 221.927 26.4599 221.927 26.2266C221.927 25.9932 221.932 25.8066 221.941 25.6666C221.96 24.9946 222.1 24.4206 222.361 23.9446C222.623 23.4592 222.991 23.0906 223.467 22.8386C223.953 22.5772 224.527 22.4466 225.189 22.4466C225.731 22.4466 226.193 22.5212 226.575 22.6706C226.967 22.8199 227.289 23.0112 227.541 23.2446C227.793 23.4779 227.98 23.7299 228.101 24.0006C228.232 24.2712 228.302 24.5279 228.311 24.7706C228.321 24.8639 228.293 24.9386 228.227 24.9946C228.162 25.0506 228.083 25.0786 227.989 25.0786H227.317C227.224 25.0786 227.154 25.0599 227.107 25.0226C227.061 24.9759 227.014 24.9012 226.967 24.7986C226.799 24.3412 226.571 24.0192 226.281 23.8326C225.992 23.6459 225.633 23.5526 225.203 23.5526C224.643 23.5526 224.186 23.7252 223.831 24.0706C223.486 24.4159 223.299 24.9712 223.271 25.7366C223.262 26.0726 223.262 26.3992 223.271 26.7166C223.299 27.4912 223.486 28.0512 223.831 28.3966C224.186 28.7326 224.643 28.9006 225.203 28.9006C225.633 28.9006 225.992 28.8072 226.281 28.6206C226.571 28.4339 226.799 28.1119 226.967 27.6546C227.014 27.5519 227.061 27.4819 227.107 27.4446C227.154 27.3979 227.224 27.3746 227.317 27.3746H227.989C228.083 27.3746 228.162 27.4026 228.227 27.4586C228.293 27.5146 228.321 27.5892 228.311 27.6826C228.302 27.8786 228.26 28.0792 228.185 28.2846C228.111 28.4899 227.989 28.6999 227.821 28.9146C227.663 29.1199 227.462 29.3066 227.219 29.4746C226.977 29.6332 226.683 29.7639 226.337 29.8666C226.001 29.9599 225.619 30.0066 225.189 30.0066ZM232.816 29.8666C232.293 29.8666 231.869 29.7686 231.542 29.5726C231.215 29.3672 230.977 29.0826 230.828 28.7186C230.679 28.3452 230.604 27.9066 230.604 27.4026V23.7066H229.512C229.419 23.7066 229.339 23.6786 229.274 23.6226C229.218 23.5572 229.19 23.4779 229.19 23.3846V22.9086C229.19 22.8152 229.218 22.7406 229.274 22.6846C229.339 22.6192 229.419 22.5866 229.512 22.5866H230.604V20.2486C230.604 20.1552 230.632 20.0806 230.688 20.0246C230.753 19.9592 230.833 19.9266 230.926 19.9266H231.584C231.677 19.9266 231.752 19.9592 231.808 20.0246C231.873 20.0806 231.906 20.1552 231.906 20.2486V22.5866H233.642C233.735 22.5866 233.81 22.6192 233.866 22.6846C233.931 22.7406 233.964 22.8152 233.964 22.9086V23.3846C233.964 23.4779 233.931 23.5572 233.866 23.6226C233.81 23.6786 233.735 23.7066 233.642 23.7066H231.906V27.3046C231.906 27.7432 231.981 28.0886 232.13 28.3406C232.279 28.5926 232.545 28.7186 232.928 28.7186H233.782C233.875 28.7186 233.95 28.7512 234.006 28.8166C234.071 28.8726 234.104 28.9472 234.104 29.0406V29.5446C234.104 29.6379 234.071 29.7172 234.006 29.7826C233.95 29.8386 233.875 29.8666 233.782 29.8666H232.816ZM235.765 29.8666C235.671 29.8666 235.592 29.8386 235.527 29.7826C235.471 29.7172 235.443 29.6379 235.443 29.5446V22.9086C235.443 22.8152 235.471 22.7406 235.527 22.6846C235.592 22.6192 235.671 22.5866 235.765 22.5866H236.437C236.53 22.5866 236.605 22.6192 236.661 22.6846C236.717 22.7406 236.745 22.8152 236.745 22.9086V29.5446C236.745 29.6379 236.717 29.7172 236.661 29.7826C236.605 29.8386 236.53 29.8666 236.437 29.8666H235.765ZM235.653 21.2286C235.559 21.2286 235.48 21.2006 235.415 21.1446C235.359 21.0792 235.331 20.9999 235.331 20.9066V20.1506C235.331 20.0572 235.359 19.9826 235.415 19.9266C235.48 19.8612 235.559 19.8286 235.653 19.8286H236.535C236.628 19.8286 236.703 19.8612 236.759 19.9266C236.824 19.9826 236.857 20.0572 236.857 20.1506V20.9066C236.857 20.9999 236.824 21.0792 236.759 21.1446C236.703 21.2006 236.628 21.2286 236.535 21.2286H235.653ZM241.367 29.8666C241.227 29.8666 241.115 29.8339 241.031 29.7686C240.957 29.7032 240.896 29.6192 240.849 29.5166L238.259 23.0206C238.241 22.9739 238.231 22.9272 238.231 22.8806C238.231 22.7966 238.259 22.7266 238.315 22.6706C238.371 22.6146 238.441 22.5866 238.525 22.5866H239.197C239.3 22.5866 239.379 22.6146 239.435 22.6706C239.491 22.7266 239.524 22.7779 239.533 22.8246L241.675 28.3406L243.803 22.8246C243.822 22.7779 243.855 22.7266 243.901 22.6706C243.957 22.6146 244.037 22.5866 244.139 22.5866H244.825C244.9 22.5866 244.965 22.6146 245.021 22.6706C245.087 22.7266 245.119 22.7966 245.119 22.8806C245.119 22.9272 245.11 22.9739 245.091 23.0206L242.487 29.5166C242.45 29.6192 242.389 29.7032 242.305 29.7686C242.231 29.8339 242.119 29.8666 241.969 29.8666H241.367ZM249.224 30.0066C248.262 30.0066 247.497 29.7126 246.928 29.1246C246.358 28.5272 246.046 27.7152 245.99 26.6886C245.98 26.5672 245.976 26.4132 245.976 26.2266C245.976 26.0306 245.98 25.8719 245.99 25.7506C246.027 25.0879 246.181 24.5092 246.452 24.0146C246.722 23.5106 247.091 23.1232 247.558 22.8526C248.034 22.5819 248.589 22.4466 249.224 22.4466C249.933 22.4466 250.526 22.5959 251.002 22.8946C251.487 23.1932 251.856 23.6179 252.108 24.1686C252.36 24.7192 252.486 25.3632 252.486 26.1006V26.3386C252.486 26.4412 252.453 26.5206 252.388 26.5766C252.332 26.6326 252.257 26.6606 252.164 26.6606H247.32C247.32 26.6699 247.32 26.6886 247.32 26.7166C247.32 26.7446 247.32 26.7679 247.32 26.7866C247.338 27.1692 247.422 27.5286 247.572 27.8646C247.721 28.1912 247.936 28.4572 248.216 28.6626C248.496 28.8679 248.832 28.9706 249.224 28.9706C249.56 28.9706 249.84 28.9192 250.064 28.8166C250.288 28.7139 250.47 28.6019 250.61 28.4806C250.75 28.3499 250.843 28.2519 250.89 28.1866C250.974 28.0652 251.039 27.9952 251.086 27.9766C251.132 27.9486 251.207 27.9346 251.31 27.9346H251.982C252.075 27.9346 252.15 27.9626 252.206 28.0186C252.271 28.0652 252.299 28.1352 252.29 28.2286C252.28 28.3686 252.206 28.5412 252.066 28.7466C251.926 28.9426 251.725 29.1386 251.464 29.3346C251.202 29.5306 250.885 29.6939 250.512 29.8246C250.138 29.9459 249.709 30.0066 249.224 30.0066ZM247.32 25.6946H251.156V25.6526C251.156 25.2326 251.076 24.8592 250.918 24.5326C250.768 24.2059 250.549 23.9492 250.26 23.7626C249.97 23.5666 249.625 23.4686 249.224 23.4686C248.822 23.4686 248.477 23.5666 248.188 23.7626C247.908 23.9492 247.693 24.2059 247.544 24.5326C247.394 24.8592 247.32 25.2326 247.32 25.6526V25.6946Z" fill="white"/>
<g filter="url(#filter0_d_1013_10304)">
<rect x="29.4019" y="55.3452" width="219.075" height="219.075" rx="109.537" fill="#DA3743" shape-rendering="crispEdges"/>
<ellipse cx="138.939" cy="164.883" rx="95.7011" ry="96.2776" fill="#F74653" fill-opacity="0.6"/>
<rect x="72.1968" y="98.042" width="132.598" height="133.751" rx="11.5302" fill="#F74653" fill-opacity="0.2"/>
<rect x="72.3929" y="98.2381" width="132.206" height="133.359" rx="11.3342" stroke="white" stroke-opacity="0.4" stroke-width="0.392189"/>
<g clip-path="url(#clip0_1013_10304)">
<path d="M154.236 198.254V191.586H164.236V181.586H170.904V193.253C170.904 194.587 170.237 195.587 169.237 196.587C168.237 197.587 166.903 198.254 165.903 198.254H154.236ZM120.899 198.254H109.232C107.898 198.254 106.898 197.587 105.898 196.587C104.898 195.587 104.231 194.253 104.231 193.253V181.586H110.899V191.586H120.899V198.254ZM154.236 131.581H165.903C167.237 131.581 168.237 132.248 169.237 133.248C170.237 134.248 170.904 135.248 170.904 136.582V148.249H164.236V138.249H154.236V131.581ZM120.899 131.581V138.249H110.899V148.249H104.231V136.582C104.231 135.248 104.898 134.248 105.898 133.248C106.898 132.248 107.898 131.581 109.232 131.581H120.899ZM160.903 161.584H114.232V168.251H160.903V161.584Z" fill="white"/>
</g>
</g>
<path d="M67.3735 306.868L71.3495 297.152H72.3015L76.2635 306.868H74.8355L71.5735 298.65H72.0635L68.7735 306.868H67.3735ZM69.2635 304.67V303.522H74.3735V304.67H69.2635ZM80.0394 307.008C79.4981 307.008 79.0081 306.887 78.5694 306.644C78.1401 306.392 77.8041 306.047 77.5614 305.608C77.3187 305.17 77.1974 304.661 77.1974 304.082V300.218H78.4574V304.026C78.4574 304.39 78.5181 304.708 78.6394 304.978C78.7701 305.24 78.9567 305.44 79.1994 305.58C79.4421 305.72 79.7267 305.79 80.0534 305.79C80.5481 305.79 80.9354 305.636 81.2154 305.328C81.4954 305.011 81.6354 304.577 81.6354 304.026V300.218H82.8954V304.082C82.8954 304.661 82.7741 305.17 82.5314 305.608C82.2887 306.047 81.9527 306.392 81.5234 306.644C81.1034 306.887 80.6087 307.008 80.0394 307.008ZM85.6062 306.868V297.432H86.8662V306.868H85.6062ZM83.9682 301.366V300.218H88.5042V301.366H83.9682ZM92.5714 307.008C91.918 307.008 91.33 306.854 90.8074 306.546C90.2847 306.238 89.8694 305.823 89.5614 305.3C89.2534 304.768 89.0994 304.176 89.0994 303.522C89.0994 302.878 89.2534 302.3 89.5614 301.786C89.8694 301.264 90.2847 300.848 90.8074 300.54C91.33 300.232 91.918 300.078 92.5714 300.078C93.2154 300.078 93.7987 300.232 94.3214 300.54C94.8534 300.839 95.2734 301.25 95.5814 301.772C95.8894 302.295 96.0434 302.878 96.0434 303.522C96.0434 304.176 95.8894 304.768 95.5814 305.3C95.2734 305.823 94.8534 306.238 94.3214 306.546C93.7987 306.854 93.2154 307.008 92.5714 307.008ZM92.5714 305.79C92.9914 305.79 93.3647 305.692 93.6914 305.496C94.018 305.3 94.2747 305.034 94.4614 304.698C94.648 304.353 94.7414 303.961 94.7414 303.522C94.7414 303.093 94.6434 302.71 94.4474 302.374C94.2607 302.038 94.004 301.777 93.6774 301.59C93.36 301.394 92.9914 301.296 92.5714 301.296C92.1514 301.296 91.778 301.394 91.4514 301.59C91.1247 301.777 90.868 302.038 90.6814 302.374C90.4947 302.71 90.4014 303.093 90.4014 303.522C90.4014 303.961 90.4947 304.353 90.6814 304.698C90.868 305.034 91.1247 305.3 91.4514 305.496C91.778 305.692 92.1514 305.79 92.5714 305.79ZM103.301 307.008C102.536 307.008 101.883 306.868 101.341 306.588C100.8 306.308 100.319 305.902 99.8992 305.37L100.795 304.474C101.103 304.904 101.458 305.23 101.859 305.454C102.261 305.669 102.755 305.776 103.343 305.776C103.922 305.776 104.384 305.65 104.729 305.398C105.084 305.146 105.261 304.801 105.261 304.362C105.261 303.998 105.177 303.704 105.009 303.48C104.841 303.256 104.613 303.074 104.323 302.934C104.043 302.785 103.735 302.654 103.399 302.542C103.063 302.421 102.727 302.295 102.391 302.164C102.055 302.024 101.747 301.856 101.467 301.66C101.187 301.455 100.959 301.189 100.781 300.862C100.613 300.536 100.529 300.125 100.529 299.63C100.529 299.08 100.66 298.613 100.921 298.23C101.192 297.838 101.556 297.54 102.013 297.334C102.48 297.12 103.003 297.012 103.581 297.012C104.216 297.012 104.785 297.138 105.289 297.39C105.793 297.633 106.204 297.955 106.521 298.356L105.625 299.252C105.336 298.916 105.023 298.664 104.687 298.496C104.361 298.328 103.983 298.244 103.553 298.244C103.031 298.244 102.615 298.361 102.307 298.594C101.999 298.818 101.845 299.136 101.845 299.546C101.845 299.873 101.929 300.139 102.097 300.344C102.275 300.54 102.503 300.708 102.783 300.848C103.063 300.988 103.371 301.119 103.707 301.24C104.053 301.352 104.393 301.478 104.729 301.618C105.065 301.758 105.373 301.936 105.653 302.15C105.933 302.365 106.157 302.645 106.325 302.99C106.503 303.326 106.591 303.751 106.591 304.264C106.591 305.123 106.293 305.795 105.695 306.28C105.107 306.766 104.309 307.008 103.301 307.008ZM111.083 307.008C110.43 307.008 109.837 306.854 109.305 306.546C108.782 306.238 108.367 305.823 108.059 305.3C107.76 304.768 107.611 304.18 107.611 303.536C107.611 302.883 107.76 302.295 108.059 301.772C108.367 301.25 108.782 300.839 109.305 300.54C109.837 300.232 110.43 300.078 111.083 300.078C111.596 300.078 112.072 300.176 112.511 300.372C112.95 300.559 113.328 300.834 113.645 301.198L112.805 302.038C112.6 301.796 112.348 301.614 112.049 301.492C111.76 301.362 111.438 301.296 111.083 301.296C110.663 301.296 110.29 301.394 109.963 301.59C109.636 301.777 109.38 302.038 109.193 302.374C109.006 302.71 108.913 303.098 108.913 303.536C108.913 303.975 109.006 304.362 109.193 304.698C109.38 305.034 109.636 305.3 109.963 305.496C110.29 305.692 110.663 305.79 111.083 305.79C111.438 305.79 111.76 305.73 112.049 305.608C112.348 305.478 112.604 305.291 112.819 305.048L113.645 305.888C113.337 306.243 112.959 306.518 112.511 306.714C112.072 306.91 111.596 307.008 111.083 307.008ZM117.586 307.008C116.979 307.008 116.429 306.859 115.934 306.56C115.439 306.252 115.047 305.837 114.758 305.314C114.478 304.792 114.338 304.204 114.338 303.55C114.338 302.897 114.478 302.309 114.758 301.786C115.047 301.264 115.435 300.848 115.92 300.54C116.415 300.232 116.97 300.078 117.586 300.078C118.09 300.078 118.538 300.186 118.93 300.4C119.331 300.606 119.653 300.895 119.896 301.268C120.139 301.632 120.274 302.057 120.302 302.542V304.544C120.274 305.02 120.139 305.445 119.896 305.818C119.663 306.192 119.345 306.486 118.944 306.7C118.552 306.906 118.099 307.008 117.586 307.008ZM117.796 305.818C118.421 305.818 118.925 305.608 119.308 305.188C119.691 304.759 119.882 304.213 119.882 303.55C119.882 303.093 119.793 302.696 119.616 302.36C119.448 302.015 119.205 301.749 118.888 301.562C118.571 301.366 118.202 301.268 117.782 301.268C117.362 301.268 116.989 301.366 116.662 301.562C116.345 301.758 116.093 302.029 115.906 302.374C115.729 302.71 115.64 303.098 115.64 303.536C115.64 303.984 115.729 304.381 115.906 304.726C116.093 305.062 116.349 305.328 116.676 305.524C117.003 305.72 117.376 305.818 117.796 305.818ZM119.798 306.868V305.076L120.036 303.452L119.798 301.842V300.218H121.072V306.868H119.798ZM127.61 306.868V302.99C127.61 302.486 127.452 302.071 127.134 301.744C126.817 301.418 126.406 301.254 125.902 301.254C125.566 301.254 125.268 301.329 125.006 301.478C124.745 301.628 124.54 301.833 124.39 302.094C124.241 302.356 124.166 302.654 124.166 302.99L123.648 302.696C123.648 302.192 123.76 301.744 123.984 301.352C124.208 300.96 124.521 300.652 124.922 300.428C125.324 300.195 125.776 300.078 126.28 300.078C126.784 300.078 127.228 300.204 127.61 300.456C128.002 300.708 128.31 301.04 128.534 301.45C128.758 301.852 128.87 302.281 128.87 302.738V306.868H127.61ZM122.906 306.868V300.218H124.166V306.868H122.906ZM135.28 306.868V302.99C135.28 302.486 135.122 302.071 134.804 301.744C134.487 301.418 134.076 301.254 133.572 301.254C133.236 301.254 132.938 301.329 132.676 301.478C132.415 301.628 132.21 301.833 132.06 302.094C131.911 302.356 131.836 302.654 131.836 302.99L131.318 302.696C131.318 302.192 131.43 301.744 131.654 301.352C131.878 300.96 132.191 300.652 132.592 300.428C132.994 300.195 133.446 300.078 133.95 300.078C134.454 300.078 134.898 300.204 135.28 300.456C135.672 300.708 135.98 301.04 136.204 301.45C136.428 301.852 136.54 302.281 136.54 302.738V306.868H135.28ZM130.576 306.868V300.218H131.836V306.868H130.576ZM138.26 306.868V300.218H139.52V306.868H138.26ZM138.89 298.888C138.657 298.888 138.466 298.814 138.316 298.664C138.167 298.506 138.092 298.31 138.092 298.076C138.092 297.852 138.167 297.666 138.316 297.516C138.466 297.358 138.657 297.278 138.89 297.278C139.124 297.278 139.315 297.358 139.464 297.516C139.614 297.666 139.688 297.852 139.688 298.076C139.688 298.31 139.614 298.506 139.464 298.664C139.315 298.814 139.124 298.888 138.89 298.888ZM146.081 306.868V302.99C146.081 302.486 145.922 302.071 145.605 301.744C145.288 301.418 144.877 301.254 144.373 301.254C144.037 301.254 143.738 301.329 143.477 301.478C143.216 301.628 143.01 301.833 142.861 302.094C142.712 302.356 142.637 302.654 142.637 302.99L142.119 302.696C142.119 302.192 142.231 301.744 142.455 301.352C142.679 300.96 142.992 300.652 143.393 300.428C143.794 300.195 144.247 300.078 144.751 300.078C145.255 300.078 145.698 300.204 146.081 300.456C146.473 300.708 146.781 301.04 147.005 301.45C147.229 301.852 147.341 302.281 147.341 302.738V306.868H146.081ZM141.377 306.868V300.218H142.637V306.868H141.377ZM151.805 309.794C151.124 309.794 150.517 309.668 149.985 309.416C149.462 309.164 149.042 308.81 148.725 308.352L149.537 307.526C149.808 307.872 150.13 308.133 150.503 308.31C150.876 308.497 151.32 308.59 151.833 308.59C152.514 308.59 153.051 308.408 153.443 308.044C153.844 307.69 154.045 307.209 154.045 306.602V304.95L154.269 303.452L154.045 301.968V300.218H155.305V306.602C155.305 307.237 155.156 307.792 154.857 308.268C154.568 308.744 154.157 309.118 153.625 309.388C153.102 309.659 152.496 309.794 151.805 309.794ZM151.805 306.756C151.198 306.756 150.652 306.612 150.167 306.322C149.691 306.033 149.313 305.636 149.033 305.132C148.753 304.619 148.613 304.045 148.613 303.41C148.613 302.776 148.753 302.211 149.033 301.716C149.313 301.212 149.691 300.816 150.167 300.526C150.652 300.228 151.198 300.078 151.805 300.078C152.328 300.078 152.79 300.181 153.191 300.386C153.592 300.592 153.91 300.881 154.143 301.254C154.386 301.618 154.516 302.048 154.535 302.542V304.306C154.507 304.792 154.372 305.221 154.129 305.594C153.896 305.958 153.578 306.243 153.177 306.448C152.776 306.654 152.318 306.756 151.805 306.756ZM152.057 305.566C152.468 305.566 152.827 305.478 153.135 305.3C153.452 305.123 153.695 304.876 153.863 304.558C154.031 304.232 154.115 303.854 154.115 303.424C154.115 302.995 154.026 302.622 153.849 302.304C153.681 301.978 153.443 301.726 153.135 301.548C152.827 301.362 152.463 301.268 152.043 301.268C151.623 301.268 151.254 301.362 150.937 301.548C150.62 301.726 150.368 301.978 150.181 302.304C150.004 302.622 149.915 302.99 149.915 303.41C149.915 303.83 150.004 304.204 150.181 304.53C150.368 304.857 150.62 305.114 150.937 305.3C151.264 305.478 151.637 305.566 152.057 305.566ZM160.291 306.868V297.152H161.607V306.868H160.291ZM161.187 306.868V305.664H166.759V306.868H161.187ZM161.187 302.472V301.324H166.297V302.472H161.187ZM161.187 298.356V297.152H166.689V298.356H161.187ZM173.028 306.868V302.99C173.028 302.486 172.87 302.071 172.552 301.744C172.235 301.418 171.824 301.254 171.32 301.254C170.984 301.254 170.686 301.329 170.424 301.478C170.163 301.628 169.958 301.833 169.808 302.094C169.659 302.356 169.584 302.654 169.584 302.99L169.066 302.696C169.066 302.192 169.178 301.744 169.402 301.352C169.626 300.96 169.939 300.652 170.34 300.428C170.742 300.195 171.194 300.078 171.698 300.078C172.202 300.078 172.646 300.204 173.028 300.456C173.42 300.708 173.728 301.04 173.952 301.45C174.176 301.852 174.288 302.281 174.288 302.738V306.868H173.028ZM168.324 306.868V300.218H169.584V306.868H168.324ZM178.822 307.008C178.216 307.008 177.665 306.859 177.17 306.56C176.676 306.252 176.284 305.837 175.994 305.314C175.714 304.792 175.574 304.204 175.574 303.55C175.574 302.897 175.714 302.309 175.994 301.786C176.284 301.264 176.671 300.848 177.156 300.54C177.651 300.232 178.206 300.078 178.822 300.078C179.326 300.078 179.774 300.186 180.166 300.4C180.568 300.606 180.89 300.895 181.132 301.268C181.375 301.632 181.51 302.057 181.538 302.542V304.544C181.51 305.02 181.375 305.445 181.132 305.818C180.899 306.192 180.582 306.486 180.18 306.7C179.788 306.906 179.336 307.008 178.822 307.008ZM179.032 305.818C179.658 305.818 180.162 305.608 180.544 305.188C180.927 304.759 181.118 304.213 181.118 303.55C181.118 303.093 181.03 302.696 180.852 302.36C180.684 302.015 180.442 301.749 180.124 301.562C179.807 301.366 179.438 301.268 179.018 301.268C178.598 301.268 178.225 301.366 177.898 301.562C177.581 301.758 177.329 302.029 177.142 302.374C176.965 302.71 176.876 303.098 176.876 303.536C176.876 303.984 176.965 304.381 177.142 304.726C177.329 305.062 177.586 305.328 177.912 305.524C178.239 305.72 178.612 305.818 179.032 305.818ZM181.034 306.868V305.076L181.272 303.452L181.034 301.842V300.218H182.308V306.868H181.034ZM187.643 307.008C187.139 307.008 186.681 306.906 186.271 306.7C185.869 306.486 185.547 306.192 185.305 305.818C185.062 305.445 184.927 305.02 184.899 304.544V302.542C184.927 302.057 185.062 301.632 185.305 301.268C185.557 300.895 185.883 300.606 186.285 300.4C186.695 300.186 187.148 300.078 187.643 300.078C188.249 300.078 188.795 300.232 189.281 300.54C189.775 300.848 190.163 301.264 190.443 301.786C190.723 302.309 190.863 302.897 190.863 303.55C190.863 304.204 190.723 304.792 190.443 305.314C190.163 305.837 189.775 306.252 189.281 306.56C188.795 306.859 188.249 307.008 187.643 307.008ZM184.143 306.868V296.872H185.403V301.842L185.165 303.452L185.403 305.076V306.868H184.143ZM187.433 305.818C187.853 305.818 188.221 305.72 188.539 305.524C188.856 305.328 189.108 305.062 189.295 304.726C189.481 304.381 189.575 303.984 189.575 303.536C189.575 303.098 189.481 302.706 189.295 302.36C189.108 302.015 188.856 301.749 188.539 301.562C188.221 301.366 187.857 301.268 187.447 301.268C187.027 301.268 186.658 301.366 186.341 301.562C186.023 301.749 185.776 302.015 185.599 302.36C185.421 302.706 185.333 303.102 185.333 303.55C185.333 303.989 185.417 304.381 185.585 304.726C185.762 305.062 186.009 305.328 186.327 305.524C186.653 305.72 187.022 305.818 187.433 305.818ZM192.291 306.868V296.872H193.551V306.868H192.291ZM198.475 307.008C197.812 307.008 197.215 306.859 196.683 306.56C196.151 306.252 195.731 305.837 195.423 305.314C195.115 304.792 194.961 304.199 194.961 303.536C194.961 302.883 195.11 302.295 195.409 301.772C195.717 301.25 196.127 300.839 196.641 300.54C197.163 300.232 197.747 300.078 198.391 300.078C199.007 300.078 199.548 300.218 200.015 300.498C200.491 300.778 200.859 301.166 201.121 301.66C201.391 302.155 201.527 302.715 201.527 303.34C201.527 303.434 201.522 303.536 201.513 303.648C201.503 303.751 201.485 303.872 201.457 304.012H195.843V302.962H200.785L200.323 303.368C200.323 302.92 200.243 302.542 200.085 302.234C199.926 301.917 199.702 301.674 199.413 301.506C199.123 301.329 198.773 301.24 198.363 301.24C197.933 301.24 197.555 301.334 197.229 301.52C196.902 301.707 196.65 301.968 196.473 302.304C196.295 302.64 196.207 303.037 196.207 303.494C196.207 303.961 196.3 304.372 196.487 304.726C196.673 305.072 196.939 305.342 197.285 305.538C197.63 305.725 198.027 305.818 198.475 305.818C198.848 305.818 199.189 305.753 199.497 305.622C199.814 305.492 200.085 305.296 200.309 305.034L201.121 305.86C200.803 306.234 200.411 306.518 199.945 306.714C199.487 306.91 198.997 307.008 198.475 307.008ZM205.715 307.008C205.099 307.008 204.548 306.859 204.063 306.56C203.577 306.252 203.19 305.837 202.901 305.314C202.621 304.792 202.481 304.204 202.481 303.55C202.481 302.897 202.621 302.309 202.901 301.786C203.19 301.264 203.577 300.848 204.063 300.54C204.548 300.232 205.099 300.078 205.715 300.078C206.209 300.078 206.657 300.186 207.059 300.4C207.46 300.606 207.782 300.895 208.025 301.268C208.277 301.632 208.417 302.057 208.445 302.542V304.544C208.417 305.02 208.281 305.445 208.039 305.818C207.796 306.192 207.474 306.486 207.073 306.7C206.671 306.906 206.219 307.008 205.715 307.008ZM205.925 305.818C206.345 305.818 206.709 305.72 207.017 305.524C207.334 305.328 207.581 305.062 207.759 304.726C207.936 304.381 208.025 303.989 208.025 303.55C208.025 303.093 207.931 302.696 207.745 302.36C207.567 302.024 207.32 301.758 207.003 301.562C206.695 301.366 206.331 301.268 205.911 301.268C205.491 301.268 205.122 301.366 204.805 301.562C204.487 301.758 204.235 302.029 204.049 302.374C203.871 302.71 203.783 303.098 203.783 303.536C203.783 303.984 203.871 304.381 204.049 304.726C204.235 305.062 204.487 305.328 204.805 305.524C205.131 305.72 205.505 305.818 205.925 305.818ZM209.215 306.868H207.941V305.076L208.179 303.452L207.941 301.842V296.872H209.215V306.868Z" fill="#2D2D2D"/>
<defs>
<filter id="filter0_d_1013_10304" x="13.7143" y="42.7952" width="250.45" height="250.45" filterUnits="userSpaceOnUse" color-interpolation-filters="sRGB">
<feFlood flood-opacity="0" result="BackgroundImageFix"/>
<feColorMatrix in="SourceAlpha" type="matrix" values="0 0 0 0 0 0 0 0 0 0 0 0 0 0 0 0 0 0 127 0" result="hardAlpha"/>
<feOffset dy="3.13751"/>
<feGaussianBlur stdDeviation="7.84379"/>
<feComposite in2="hardAlpha" operator="out"/>
<feColorMatrix type="matrix" values="0 0 0 0 0 0 0 0 0 0 0 0 0 0 0 0 0 0 0.2 0"/>
<feBlend mode="normal" in2="BackgroundImageFix" result="effect1_dropShadow_1013_10304"/>
<feBlend mode="normal" in="SourceGraphic" in2="effect1_dropShadow_1013_10304" result="shape"/>
</filter>
<clipPath id="clip0_1013_10304">
<rect width="80.0066" height="80.0066" fill="white" transform="translate(97.5635 124.914)"/>
</clipPath>
</defs>
</svg>
