<svg width="250" height="210" viewBox="0 0 250 210" fill="none" xmlns="http://www.w3.org/2000/svg">
<rect x="0.346262" y="0.346262" width="249.307" height="208.449" rx="10.7341" fill="white"/>
<rect x="0.346262" y="0.346262" width="249.307" height="208.449" rx="10.7341" stroke="#EAE6E6" stroke-width="0.692523"/>
<path d="M12.5599 25.0444V17.2882H13.8341V25.0444H12.5599ZM18.9932 25.0444V21.9752C18.9932 21.6206 18.8787 21.3288 18.6497 21.0998C18.4281 20.8708 18.14 20.7563 17.7854 20.7563C17.549 20.7563 17.3385 20.808 17.1538 20.9115C16.9692 21.0149 16.8251 21.1589 16.7217 21.3436C16.6183 21.5283 16.5666 21.7388 16.5666 21.9752L16.0901 21.7092C16.0901 21.303 16.1788 20.9447 16.356 20.6344C16.5333 20.3168 16.7771 20.0693 17.0873 19.8921C17.405 19.7074 17.7596 19.615 18.1511 19.615C18.55 19.615 18.9045 19.7185 19.2148 19.9253C19.525 20.1247 19.7688 20.387 19.9461 20.712C20.1234 21.0296 20.212 21.3621 20.212 21.7092V25.0444H18.9932ZM15.3477 25.0444V19.7259H16.5666V25.0444H15.3477ZM23.2456 25.0444L20.819 19.7259H22.1708L24.0212 24.0583H23.2234L25.0849 19.7259H26.3814L23.9547 25.0444H23.2456ZM27.2652 25.0444V17.2882H28.5394V25.0444H27.2652ZM32.4907 25.1552C31.9736 25.1552 31.5046 25.0334 31.0835 24.7896C30.6624 24.5384 30.3263 24.2023 30.0752 23.7813C29.8314 23.3602 29.7095 22.8911 29.7095 22.3741C29.7095 21.857 29.8314 21.3916 30.0752 20.9779C30.3263 20.5643 30.6624 20.2356 31.0835 19.9918C31.5046 19.7406 31.9736 19.615 32.4907 19.615C33.0152 19.615 33.4879 19.7369 33.909 19.9807C34.3301 20.2245 34.6625 20.5569 34.9062 20.9779C35.1574 21.3916 35.283 21.857 35.283 22.3741C35.283 22.8911 35.1574 23.3602 34.9062 23.7813C34.6625 24.2023 34.3301 24.5384 33.909 24.7896C33.4879 25.0334 33.0152 25.1552 32.4907 25.1552ZM32.4907 23.9807C32.7936 23.9807 33.0595 23.9142 33.2885 23.7813C33.5249 23.6409 33.7059 23.4489 33.8314 23.2051C33.9644 22.9613 34.0309 22.6843 34.0309 22.3741C34.0309 22.0638 33.9644 21.7905 33.8314 21.5541C33.6985 21.3177 33.5175 21.1331 33.2885 21.0001C33.0595 20.8597 32.7936 20.7896 32.4907 20.7896C32.1952 20.7896 31.9293 20.8597 31.6929 21.0001C31.4639 21.1331 31.2829 21.3177 31.15 21.5541C31.0244 21.7905 30.9616 22.0638 30.9616 22.3741C30.9616 22.6843 31.0244 22.9613 31.15 23.2051C31.2829 23.4489 31.4639 23.6409 31.6929 23.7813C31.9293 23.9142 32.1952 23.9807 32.4907 23.9807ZM36.3076 25.0444V19.7259H37.5265V25.0444H36.3076ZM36.9171 18.7508C36.7102 18.7508 36.5366 18.6806 36.3963 18.5403C36.2633 18.3999 36.1968 18.2263 36.1968 18.0195C36.1968 17.8126 36.2633 17.639 36.3963 17.4987C36.5366 17.3583 36.7102 17.2882 36.9171 17.2882C37.1313 17.2882 37.3049 17.3583 37.4378 17.4987C37.5708 17.639 37.6373 17.8126 37.6373 18.0195C37.6373 18.2263 37.5708 18.3999 37.4378 18.5403C37.3049 18.6806 37.1313 18.7508 36.9171 18.7508ZM41.3423 25.1552C40.8178 25.1552 40.3414 25.0334 39.9129 24.7896C39.4919 24.5458 39.1594 24.2134 38.9157 23.7924C38.6719 23.3713 38.55 22.9022 38.55 22.3851C38.55 21.8607 38.6719 21.3916 38.9157 20.9779C39.1594 20.5569 39.4919 20.2245 39.9129 19.9807C40.3414 19.7369 40.8178 19.615 41.3423 19.615C41.756 19.615 42.1401 19.6963 42.4946 19.8588C42.8566 20.0139 43.1632 20.2392 43.4143 20.5347L42.6165 21.3436C42.4614 21.1589 42.273 21.0223 42.0514 20.9336C41.8372 20.8376 41.6008 20.7896 41.3423 20.7896C41.0394 20.7896 40.7698 20.8597 40.5334 21.0001C40.3044 21.1331 40.1234 21.3177 39.9905 21.5541C39.8649 21.7905 39.8021 22.0675 39.8021 22.3851C39.8021 22.6954 39.8649 22.9724 39.9905 23.2162C40.1234 23.4526 40.3044 23.6409 40.5334 23.7813C40.7698 23.9142 41.0394 23.9807 41.3423 23.9807C41.6008 23.9807 41.8372 23.9364 42.0514 23.8478C42.273 23.7517 42.4614 23.6114 42.6165 23.4267L43.4143 24.2356C43.1632 24.531 42.8566 24.76 42.4946 24.9225C42.1401 25.0777 41.756 25.1552 41.3423 25.1552ZM46.6558 25.1552C46.1239 25.1552 45.6437 25.037 45.2153 24.8007C44.7943 24.5569 44.4581 24.2245 44.207 23.8034C43.9632 23.3824 43.8413 22.9096 43.8413 22.3851C43.8413 21.8607 43.9632 21.3916 44.207 20.9779C44.4508 20.5569 44.7795 20.2245 45.1931 19.9807C45.6142 19.7369 46.0796 19.615 46.5893 19.615C47.0842 19.615 47.52 19.7295 47.8968 19.9585C48.2809 20.1875 48.58 20.5015 48.7943 20.9004C49.0159 21.2993 49.1267 21.7536 49.1267 22.2633C49.1267 22.3519 49.1193 22.4442 49.1045 22.5403C49.0971 22.6289 49.0824 22.7286 49.0602 22.8394H44.6945V21.8422H48.4286L47.9743 22.2411C47.9595 21.9161 47.8968 21.6428 47.786 21.4212C47.6752 21.1995 47.5163 21.0296 47.3095 20.9115C47.1101 20.7933 46.8626 20.7342 46.5671 20.7342C46.2569 20.7342 45.9872 20.8006 45.7582 20.9336C45.5293 21.0666 45.352 21.2549 45.2264 21.4987C45.1008 21.7351 45.038 22.0195 45.038 22.3519C45.038 22.6843 45.1045 22.9761 45.2375 23.2273C45.3704 23.4784 45.5588 23.6742 45.8026 23.8145C46.0463 23.9475 46.327 24.014 46.6447 24.014C46.918 24.014 47.1691 23.9659 47.3981 23.8699C47.6345 23.7739 47.834 23.6335 47.9965 23.4489L48.7721 24.2356C48.5136 24.5384 48.1996 24.7674 47.8303 24.9225C47.4609 25.0777 47.0694 25.1552 46.6558 25.1552Z" fill="#2D2D2D"/>
<path d="M125 55.0605C133.546 55.0605 141.973 57.0634 149.605 60.9086C157.237 64.7537 163.862 70.3341 168.948 77.202C174.034 84.0699 177.44 92.0342 178.892 100.456C180.344 108.878 179.802 117.523 177.31 125.697C174.817 133.872 170.444 141.349 164.54 147.528C158.636 153.707 151.366 158.416 143.313 161.278C135.261 164.14 126.649 165.075 118.17 164.007C109.691 162.94 101.58 159.901 94.4875 155.132L112.795 127.902C115.632 129.809 118.876 131.025 122.268 131.452C125.659 131.879 129.104 131.505 132.325 130.36C135.546 129.215 138.454 127.331 140.816 124.86C143.177 122.388 144.927 119.398 145.924 116.128C146.921 112.858 147.137 109.4 146.556 106.031C145.976 102.663 144.613 99.4768 142.579 96.7296C140.545 93.9825 137.895 91.7503 134.842 90.2123C131.789 88.6742 128.418 87.873 125 87.873L125 55.0605Z" fill="#10B981"/>
<path d="M94.4875 155.132C86.5209 149.776 80.1045 142.418 75.8832 133.796C71.6618 125.174 69.7844 115.593 70.4395 106.016C71.0946 96.4388 74.2592 87.2026 79.6152 79.236C84.9711 71.2694 92.3298 64.853 100.952 60.6317L115.38 90.1015C111.932 91.79 108.988 94.3566 106.846 97.5432C104.703 100.73 103.438 104.424 103.176 108.255C102.913 112.086 103.664 115.919 105.353 119.367C107.041 122.816 109.608 125.759 112.795 127.902L94.4875 155.132Z" fill="#DA3743"/>
<path d="M100.952 60.6317C108.438 56.9661 116.664 55.0605 125 55.0605V87.873C121.665 87.873 118.375 88.6353 115.38 90.1015L100.952 60.6317Z" fill="#FFAE4C"/>
<path d="M216.579 121.407V120.726H218.149C218.365 120.726 218.556 120.682 218.723 120.593C218.894 120.504 219.027 120.38 219.121 120.219C219.221 120.058 219.271 119.867 219.271 119.646C219.271 119.424 219.221 119.233 219.121 119.072C219.027 118.911 218.894 118.787 218.723 118.698C218.556 118.61 218.365 118.565 218.149 118.565H216.579V117.884H218.199C218.554 117.884 218.869 117.956 219.146 118.1C219.429 118.244 219.651 118.449 219.811 118.715C219.977 118.975 220.061 119.285 220.061 119.646C220.061 120 219.977 120.31 219.811 120.576C219.651 120.837 219.429 121.042 219.146 121.191C218.869 121.335 218.554 121.407 218.199 121.407H216.579ZM216.055 123.651V117.884H216.836V123.651H216.055ZM222.413 123.734C222.053 123.734 221.726 123.646 221.433 123.468C221.139 123.285 220.906 123.039 220.735 122.729C220.568 122.418 220.485 122.069 220.485 121.682C220.485 121.294 220.568 120.945 220.735 120.634C220.906 120.324 221.136 120.078 221.424 119.895C221.718 119.712 222.048 119.621 222.413 119.621C222.712 119.621 222.978 119.684 223.211 119.812C223.449 119.934 223.64 120.105 223.784 120.327C223.928 120.543 224.009 120.795 224.025 121.083V122.272C224.009 122.554 223.928 122.806 223.784 123.028C223.646 123.249 223.458 123.424 223.219 123.551C222.987 123.673 222.718 123.734 222.413 123.734ZM222.538 123.028C222.909 123.028 223.208 122.903 223.435 122.654C223.663 122.399 223.776 122.075 223.776 121.682C223.776 121.41 223.723 121.175 223.618 120.975C223.518 120.77 223.374 120.612 223.186 120.502C222.998 120.385 222.779 120.327 222.53 120.327C222.28 120.327 222.059 120.385 221.865 120.502C221.676 120.618 221.527 120.779 221.416 120.984C221.311 121.183 221.258 121.413 221.258 121.673C221.258 121.939 221.311 122.175 221.416 122.38C221.527 122.579 221.679 122.737 221.873 122.853C222.067 122.97 222.289 123.028 222.538 123.028ZM223.726 123.651V122.587L223.867 121.623L223.726 120.668V119.704H224.482V123.651H223.726ZM225.58 123.651V119.704H226.328V123.651H225.58ZM225.954 118.914C225.815 118.914 225.702 118.87 225.613 118.781C225.524 118.687 225.48 118.571 225.48 118.432C225.48 118.299 225.524 118.188 225.613 118.1C225.702 118.006 225.815 117.959 225.954 117.959C226.092 117.959 226.206 118.006 226.294 118.1C226.383 118.188 226.427 118.299 226.427 118.432C226.427 118.571 226.383 118.687 226.294 118.781C226.206 118.87 226.092 118.914 225.954 118.914ZM229.1 123.734C228.735 123.734 228.408 123.646 228.12 123.468C227.831 123.285 227.602 123.039 227.43 122.729C227.264 122.418 227.18 122.069 227.18 121.682C227.18 121.294 227.264 120.945 227.43 120.634C227.602 120.324 227.831 120.078 228.12 119.895C228.408 119.712 228.735 119.621 229.1 119.621C229.394 119.621 229.66 119.684 229.898 119.812C230.136 119.934 230.327 120.105 230.471 120.327C230.621 120.543 230.704 120.795 230.721 121.083V122.272C230.704 122.554 230.624 122.806 230.48 123.028C230.336 123.249 230.144 123.424 229.906 123.551C229.668 123.673 229.399 123.734 229.1 123.734ZM229.225 123.028C229.474 123.028 229.69 122.97 229.873 122.853C230.061 122.737 230.208 122.579 230.313 122.38C230.419 122.175 230.471 121.942 230.471 121.682C230.471 121.41 230.416 121.175 230.305 120.975C230.2 120.776 230.053 120.618 229.865 120.502C229.682 120.385 229.466 120.327 229.217 120.327C228.967 120.327 228.748 120.385 228.56 120.502C228.372 120.618 228.222 120.779 228.111 120.984C228.006 121.183 227.953 121.413 227.953 121.673C227.953 121.939 228.006 122.175 228.111 122.38C228.222 122.579 228.372 122.737 228.56 122.853C228.754 122.97 228.976 123.028 229.225 123.028ZM231.178 123.651H230.422V122.587L230.563 121.623L230.422 120.668V117.718H231.178V123.651Z" fill="black" fill-opacity="0.7"/>
<path d="M211.257 136.116V133.981H210.609V133.449H211.257V132.767H210.609V132.236H211.257V130.183H212.121L212.911 132.236H213.892V130.183H214.548V132.236H215.196V132.767H214.548V133.449H215.196V133.981H214.548V136.116H213.675L212.886 133.981H211.905V136.116H211.257ZM211.905 133.449H212.687L212.437 132.767H211.889L211.905 133.449ZM213.892 134.945H213.925L213.9 133.981H213.551L213.892 134.945ZM211.889 132.236H212.238L211.889 131.205H211.856L211.889 132.236ZM213.351 133.449H213.908L213.892 132.767H213.102L213.351 133.449ZM217.567 136.2C217.185 136.2 216.847 136.128 216.553 135.983C216.265 135.839 216.041 135.64 215.88 135.385C215.719 135.13 215.639 134.842 215.639 134.521C215.639 134.26 215.689 134.022 215.788 133.806C215.888 133.59 216.035 133.407 216.229 133.258C216.423 133.103 216.65 132.992 216.91 132.925L216.935 133.15C216.714 133.089 216.525 132.992 216.37 132.859C216.215 132.72 216.096 132.56 216.013 132.377C215.935 132.188 215.897 131.989 215.897 131.778C215.897 131.479 215.969 131.216 216.113 130.989C216.257 130.762 216.453 130.585 216.703 130.457C216.957 130.324 217.246 130.258 217.567 130.258C217.894 130.258 218.182 130.324 218.431 130.457C218.68 130.585 218.877 130.762 219.021 130.989C219.165 131.216 219.237 131.479 219.237 131.778C219.237 131.989 219.196 132.188 219.113 132.377C219.035 132.56 218.919 132.72 218.764 132.859C218.614 132.992 218.428 133.089 218.207 133.15L218.223 132.925C218.489 132.992 218.716 133.103 218.905 133.258C219.099 133.407 219.246 133.59 219.345 133.806C219.451 134.022 219.503 134.26 219.503 134.521C219.503 134.842 219.423 135.13 219.262 135.385C219.102 135.64 218.874 135.839 218.581 135.983C218.293 136.128 217.955 136.2 217.567 136.2ZM217.567 135.493C217.8 135.493 218.002 135.449 218.174 135.36C218.351 135.266 218.489 135.139 218.589 134.978C218.694 134.817 218.747 134.632 218.747 134.421C218.747 134.216 218.694 134.033 218.589 133.873C218.489 133.712 218.351 133.587 218.174 133.499C218.002 133.405 217.8 133.357 217.567 133.357C217.34 133.357 217.138 133.405 216.96 133.499C216.783 133.587 216.642 133.712 216.536 133.873C216.437 134.033 216.387 134.216 216.387 134.421C216.387 134.632 216.437 134.817 216.536 134.978C216.642 135.139 216.783 135.266 216.96 135.36C217.138 135.449 217.34 135.493 217.567 135.493ZM217.567 132.751C217.844 132.751 218.071 132.665 218.248 132.493C218.426 132.321 218.514 132.1 218.514 131.828C218.514 131.562 218.426 131.346 218.248 131.18C218.071 131.008 217.844 130.923 217.567 130.923C217.295 130.923 217.071 131.008 216.894 131.18C216.716 131.346 216.628 131.562 216.628 131.828C216.628 132.1 216.716 132.321 216.894 132.493C217.071 132.665 217.295 132.751 217.567 132.751ZM221.056 136.2C220.9 136.2 220.77 136.147 220.665 136.042C220.565 135.931 220.515 135.801 220.515 135.651C220.515 135.496 220.565 135.369 220.665 135.269C220.77 135.164 220.9 135.111 221.056 135.111C221.211 135.111 221.338 135.164 221.438 135.269C221.543 135.369 221.596 135.496 221.596 135.651C221.596 135.801 221.543 135.931 221.438 136.042C221.338 136.147 221.211 136.2 221.056 136.2ZM224.369 136.2C223.987 136.2 223.643 136.111 223.339 135.934C223.039 135.756 222.801 135.518 222.624 135.219C222.447 134.92 222.358 134.587 222.358 134.222C222.358 133.712 222.535 133.205 222.89 132.701L224.585 130.349H225.491L223.754 132.718L223.472 132.867C223.538 132.751 223.618 132.654 223.713 132.576C223.807 132.493 223.923 132.429 224.062 132.385C224.2 132.341 224.364 132.319 224.552 132.319C224.89 132.319 225.195 132.399 225.466 132.56C225.743 132.72 225.965 132.942 226.131 133.224C226.303 133.501 226.388 133.826 226.388 134.197C226.388 134.562 226.297 134.898 226.114 135.202C225.937 135.507 225.693 135.751 225.383 135.934C225.078 136.111 224.74 136.2 224.369 136.2ZM224.369 135.468C224.602 135.468 224.81 135.413 224.992 135.302C225.181 135.186 225.328 135.033 225.433 134.845C225.544 134.651 225.599 134.435 225.599 134.197C225.599 133.959 225.544 133.745 225.433 133.557C225.328 133.363 225.181 133.211 224.992 133.1C224.81 132.989 224.602 132.934 224.369 132.934C224.136 132.934 223.926 132.989 223.737 133.1C223.555 133.211 223.408 133.363 223.297 133.557C223.192 133.745 223.139 133.959 223.139 134.197C223.139 134.435 223.192 134.651 223.297 134.845C223.408 135.039 223.555 135.191 223.737 135.302C223.926 135.413 224.136 135.468 224.369 135.468ZM227.398 136.116V130.349H227.946L230.389 134.363H230.016L232.459 130.349H233.007V136.116H232.226V131.72L232.409 131.77L230.481 134.936H229.932L228.004 131.77L228.179 131.72V136.116H227.398Z" fill="#10B981"/>
<path d="M176.263 125.378L181.55 126.99H232.421" stroke="#10B981" stroke-width="0.488283"/>
<path d="M20.847 102.958C20.4204 102.958 20.0381 102.864 19.7002 102.676C19.3678 102.482 19.1046 102.219 18.9107 101.886C18.7168 101.548 18.6198 101.166 18.6198 100.74V97.1079H19.401V100.723C19.401 101.028 19.4647 101.291 19.5921 101.512C19.7196 101.734 19.8913 101.906 20.1074 102.028C20.329 102.149 20.5755 102.21 20.847 102.21C21.1295 102.21 21.3761 102.149 21.5866 102.028C21.8027 101.906 21.9717 101.734 22.0935 101.512C22.221 101.291 22.2847 101.03 22.2847 100.731V97.1079H23.0742V100.748C23.0742 101.174 22.9772 101.554 22.7833 101.886C22.5894 102.219 22.3262 102.482 21.9938 102.676C21.6614 102.864 21.2791 102.958 20.847 102.958ZM27.0184 102.875V100.573C27.0184 100.274 26.9242 100.028 26.7358 99.8337C26.5474 99.6398 26.3037 99.5428 26.0045 99.5428C25.8051 99.5428 25.6278 99.5871 25.4726 99.6758C25.3175 99.7644 25.1956 99.8863 25.107 100.041C25.0183 100.197 24.974 100.374 24.974 100.573L24.6665 100.399C24.6665 100.1 24.733 99.8337 24.866 99.601C24.999 99.3683 25.1846 99.1855 25.4228 99.0525C25.661 98.914 25.9297 98.8448 26.2289 98.8448C26.5281 98.8448 26.7912 98.9195 27.0184 99.0691C27.251 99.2187 27.4339 99.4154 27.5668 99.6592C27.6998 99.8974 27.7663 100.152 27.7663 100.424V102.875H27.0184ZM24.2261 102.875V98.9279H24.974V102.875H24.2261ZM30.8565 102.958C30.5573 102.958 30.2858 102.897 30.0421 102.776C29.8038 102.648 29.6127 102.474 29.4687 102.252C29.3246 102.03 29.2443 101.778 29.2277 101.496V100.307C29.2443 100.019 29.3246 99.7672 29.4687 99.5511C29.6182 99.3295 29.8121 99.1578 30.0504 99.0359C30.2941 98.9085 30.5628 98.8448 30.8565 98.8448C31.2166 98.8448 31.5407 98.9362 31.8288 99.119C32.1224 99.3018 32.3523 99.5484 32.5185 99.8586C32.6847 100.169 32.7678 100.518 32.7678 100.906C32.7678 101.294 32.6847 101.643 32.5185 101.953C32.3523 102.263 32.1224 102.51 31.8288 102.692C31.5407 102.87 31.2166 102.958 30.8565 102.958ZM28.7789 104.529V98.9279H29.5268V99.9666L29.3856 100.922L29.5268 101.886V104.529H28.7789ZM30.7318 102.252C30.9811 102.252 31.2 102.194 31.3883 102.077C31.5767 101.961 31.7263 101.803 31.8371 101.604C31.9479 101.399 32.0033 101.163 32.0033 100.897C32.0033 100.637 31.9479 100.404 31.8371 100.199C31.7263 99.9943 31.5767 99.8365 31.3883 99.7256C31.2 99.6093 30.9839 99.5511 30.7401 99.5511C30.4908 99.5511 30.272 99.6093 30.0836 99.7256C29.8953 99.8365 29.7484 99.9943 29.6432 100.199C29.5379 100.404 29.4853 100.64 29.4853 100.906C29.4853 101.166 29.5351 101.399 29.6349 101.604C29.7401 101.803 29.8869 101.961 30.0753 102.077C30.2692 102.194 30.4881 102.252 30.7318 102.252ZM35.2944 102.958C34.9343 102.958 34.6074 102.87 34.3138 102.692C34.0202 102.51 33.7875 102.263 33.6157 101.953C33.4495 101.643 33.3664 101.294 33.3664 100.906C33.3664 100.518 33.4495 100.169 33.6157 99.8586C33.7875 99.5484 34.0174 99.3018 34.3055 99.119C34.5991 98.9362 34.9288 98.8448 35.2944 98.8448C35.5936 98.8448 35.8595 98.9085 36.0922 99.0359C36.3304 99.1578 36.5216 99.3295 36.6656 99.5511C36.8097 99.7672 36.89 100.019 36.9066 100.307V101.496C36.89 101.778 36.8097 102.03 36.6656 102.252C36.5271 102.474 36.3387 102.648 36.1005 102.776C35.8678 102.897 35.5991 102.958 35.2944 102.958ZM35.4191 102.252C35.7903 102.252 36.0894 102.127 36.3166 101.878C36.5437 101.623 36.6573 101.299 36.6573 100.906C36.6573 100.634 36.6047 100.399 36.4994 100.199C36.3997 99.9943 36.2556 99.8365 36.0673 99.7256C35.8789 99.6093 35.6601 99.5511 35.4108 99.5511C35.1615 99.5511 34.9399 99.6093 34.7459 99.7256C34.5576 99.842 34.408 100.003 34.2972 100.208C34.1919 100.407 34.1393 100.637 34.1393 100.897C34.1393 101.163 34.1919 101.399 34.2972 101.604C34.408 101.803 34.5603 101.961 34.7543 102.077C34.9482 102.194 35.1698 102.252 35.4191 102.252ZM36.6074 102.875V101.812L36.7487 100.848L36.6074 99.8919V98.9279H37.3637V102.875H36.6074ZM38.4609 102.875V98.9279H39.2088V102.875H38.4609ZM38.8349 98.1384C38.6964 98.1384 38.5828 98.0941 38.4941 98.0054C38.4055 97.9112 38.3612 97.7949 38.3612 97.6564C38.3612 97.5234 38.4055 97.4126 38.4941 97.324C38.5828 97.2298 38.6964 97.1827 38.8349 97.1827C38.9734 97.1827 39.0869 97.2298 39.1756 97.324C39.2642 97.4126 39.3085 97.5234 39.3085 97.6564C39.3085 97.7949 39.2642 97.9112 39.1756 98.0054C39.0869 98.0941 38.9734 98.1384 38.8349 98.1384ZM41.9814 102.958C41.6158 102.958 41.2889 102.87 41.0008 102.692C40.7127 102.51 40.4828 102.263 40.311 101.953C40.1448 101.643 40.0617 101.294 40.0617 100.906C40.0617 100.518 40.1448 100.169 40.311 99.8586C40.4828 99.5484 40.7127 99.3018 41.0008 99.119C41.2889 98.9362 41.6158 98.8448 41.9814 98.8448C42.275 98.8448 42.541 98.9085 42.7792 99.0359C43.0174 99.1578 43.2086 99.3295 43.3526 99.5511C43.5022 99.7672 43.5853 100.019 43.6019 100.307V101.496C43.5853 101.778 43.505 102.03 43.3609 102.252C43.2169 102.474 43.0257 102.648 42.7875 102.776C42.5493 102.897 42.2806 102.958 41.9814 102.958ZM42.1061 102.252C42.3554 102.252 42.5714 102.194 42.7543 102.077C42.9426 101.961 43.0894 101.803 43.1947 101.604C43.3 101.399 43.3526 101.166 43.3526 100.906C43.3526 100.634 43.2972 100.399 43.1864 100.199C43.0811 99.9999 42.9343 99.842 42.746 99.7256C42.5631 99.6093 42.3471 99.5511 42.0978 99.5511C41.8484 99.5511 41.6296 99.6093 41.4412 99.7256C41.2529 99.842 41.1033 100.003 40.9925 100.208C40.8872 100.407 40.8346 100.637 40.8346 100.897C40.8346 101.163 40.8872 101.399 40.9925 101.604C41.1033 101.803 41.2529 101.961 41.4412 102.077C41.6351 102.194 41.8568 102.252 42.1061 102.252ZM44.059 102.875H43.3027V101.812L43.444 100.848L43.3027 99.8919V96.9417H44.059V102.875Z" fill="#2D2D2D"/>
<path d="M18.7362 116.033V113.897H18.088V113.366H18.7362V112.684H18.088V112.152H18.7362V110.1H19.6005L20.3899 112.152H21.3705V110.1H22.0271V112.152H22.6753V112.684H22.0271V113.366H22.6753V113.897H22.0271V116.033H21.1545L20.365 113.897H19.3844V116.033H18.7362ZM19.3844 113.366H20.1656L19.9162 112.684H19.3678L19.3844 113.366ZM21.3705 114.861H21.4038L21.3789 113.897H21.0298L21.3705 114.861ZM19.3678 112.152H19.7168L19.3678 111.122H19.3345L19.3678 112.152ZM20.8304 113.366H21.3872L21.3705 112.684H20.5811L20.8304 113.366ZM23.0348 114.047L25.1373 110.266H26.0182L23.8741 114.047H23.0348ZM23.0348 114.529V114.047L23.3672 113.831H27.4559V114.529H23.0348ZM25.852 116.033V112.219H26.6249V116.033H25.852ZM28.5914 116.116C28.4363 116.116 28.3061 116.064 28.2008 115.958C28.1011 115.848 28.0512 115.717 28.0512 115.568C28.0512 115.413 28.1011 115.285 28.2008 115.186C28.3061 115.08 28.4363 115.028 28.5914 115.028C28.7465 115.028 28.874 115.08 28.9737 115.186C29.0789 115.285 29.1316 115.413 29.1316 115.568C29.1316 115.717 29.0789 115.848 28.9737 115.958C28.874 116.064 28.7465 116.116 28.5914 116.116ZM31.9049 116.116C31.5226 116.116 31.1791 116.028 30.8744 115.85C30.5752 115.673 30.337 115.435 30.1597 115.136C29.9824 114.837 29.8938 114.504 29.8938 114.138C29.8938 113.629 30.0711 113.122 30.4256 112.618L32.1209 110.266H33.0268L31.2899 112.634L31.0074 112.784C31.0738 112.668 31.1542 112.571 31.2484 112.493C31.3425 112.41 31.4589 112.346 31.5974 112.302C31.7359 112.258 31.8993 112.235 32.0877 112.235C32.4256 112.235 32.7304 112.316 33.0018 112.476C33.2788 112.637 33.5004 112.859 33.6666 113.141C33.8384 113.418 33.9243 113.742 33.9243 114.114C33.9243 114.479 33.8329 114.814 33.65 115.119C33.4727 115.424 33.229 115.668 32.9187 115.85C32.614 116.028 32.2761 116.116 31.9049 116.116ZM31.9049 115.385C32.1376 115.385 32.3453 115.33 32.5281 115.219C32.7165 115.102 32.8633 114.95 32.9686 114.762C33.0794 114.568 33.1348 114.352 33.1348 114.114C33.1348 113.875 33.0794 113.662 32.9686 113.474C32.8633 113.28 32.7165 113.127 32.5281 113.017C32.3453 112.906 32.1376 112.85 31.9049 112.85C31.6722 112.85 31.4617 112.906 31.2733 113.017C31.0905 113.127 30.9436 113.28 30.8328 113.474C30.7276 113.662 30.6749 113.875 30.6749 114.114C30.6749 114.352 30.7276 114.568 30.8328 114.762C30.9436 114.956 31.0905 115.108 31.2733 115.219C31.4617 115.33 31.6722 115.385 31.9049 115.385ZM34.9336 116.033V110.266H35.4821L37.9253 114.28H37.5513L39.9945 110.266H40.543V116.033H39.7618V111.637L39.9447 111.687L38.0167 114.853H37.4682L35.5402 111.687L35.7147 111.637V116.033H34.9336Z" fill="#DA3743"/>
<path d="M71.5302 106.091L66.0152 105.714H17.5771" stroke="#DA3743" stroke-width="0.488283"/>
<path d="M20.0711 47.4734V41.7061H20.8523V47.4734H20.0711ZM24.8729 47.4734V45.1714C24.8729 44.8723 24.7787 44.6257 24.5903 44.4318C24.402 44.2379 24.1582 44.141 23.859 44.141C23.6596 44.141 23.4823 44.1853 23.3272 44.2739C23.172 44.3626 23.0502 44.4845 22.9615 44.6396C22.8729 44.7947 22.8285 44.972 22.8285 45.1714L22.5211 44.9969C22.5211 44.6978 22.5875 44.4318 22.7205 44.1991C22.8535 43.9664 23.0391 43.7836 23.2773 43.6507C23.5155 43.5122 23.7842 43.4429 24.0834 43.4429C24.3826 43.4429 24.6457 43.5177 24.8729 43.6673C25.1056 43.8169 25.2884 44.0135 25.4214 44.2573C25.5543 44.4955 25.6208 44.7504 25.6208 45.0219V47.4734H24.8729ZM22.0806 47.4734V43.526H22.8285V47.4734H22.0806ZM27.988 47.4734L26.1764 43.526H27.0074L28.4617 46.8584H27.9797L29.4423 43.526H30.2401L28.4284 47.4734H27.988ZM32.527 47.5565C32.1392 47.5565 31.7901 47.4651 31.4799 47.2823C31.1696 47.0994 30.9231 46.8529 30.7403 46.5426C30.5574 46.2268 30.466 45.875 30.466 45.4872C30.466 45.105 30.5574 44.7615 30.7403 44.4568C30.9231 44.1465 31.1696 43.9 31.4799 43.7171C31.7901 43.5343 32.1392 43.4429 32.527 43.4429C32.9092 43.4429 33.2555 43.5343 33.5658 43.7171C33.8815 43.8944 34.1309 44.1382 34.3137 44.4484C34.4965 44.7587 34.5879 45.105 34.5879 45.4872C34.5879 45.875 34.4965 46.2268 34.3137 46.5426C34.1309 46.8529 33.8815 47.0994 33.5658 47.2823C33.2555 47.4651 32.9092 47.5565 32.527 47.5565ZM32.527 46.8335C32.7763 46.8335 32.9979 46.7753 33.1918 46.659C33.3857 46.5426 33.5381 46.3847 33.6489 46.1853C33.7597 45.9803 33.8151 45.7476 33.8151 45.4872C33.8151 45.2324 33.7569 45.0052 33.6405 44.8058C33.5297 44.6063 33.3774 44.4512 33.1835 44.3404C32.9951 44.2241 32.7763 44.1659 32.527 44.1659C32.2777 44.1659 32.0561 44.2241 31.8621 44.3404C31.6682 44.4512 31.5159 44.6063 31.4051 44.8058C31.2943 45.0052 31.2389 45.2324 31.2389 45.4872C31.2389 45.7476 31.2943 45.9803 31.4051 46.1853C31.5159 46.3847 31.6682 46.5426 31.8621 46.659C32.0561 46.7753 32.2777 46.8335 32.527 46.8335ZM35.4389 47.4734V43.526H36.1869V47.4734H35.4389ZM35.8129 42.7365C35.6744 42.7365 35.5608 42.6922 35.4722 42.6036C35.3835 42.5094 35.3392 42.393 35.3392 42.2545C35.3392 42.1216 35.3835 42.0108 35.4722 41.9221C35.5608 41.8279 35.6744 41.7808 35.8129 41.7808C35.9514 41.7808 36.065 41.8279 36.1536 41.9221C36.2423 42.0108 36.2866 42.1216 36.2866 42.2545C36.2866 42.393 36.2423 42.5094 36.1536 42.6036C36.065 42.6922 35.9514 42.7365 35.8129 42.7365ZM39.0924 47.5565C38.7046 47.5565 38.3528 47.4651 38.037 47.2823C37.7268 47.0994 37.4802 46.8529 37.2974 46.5426C37.1201 46.2268 37.0315 45.8778 37.0315 45.4955C37.0315 45.1077 37.1201 44.7587 37.2974 44.4484C37.4802 44.1382 37.7268 43.8944 38.037 43.7171C38.3528 43.5343 38.7046 43.4429 39.0924 43.4429C39.3971 43.4429 39.6797 43.5011 39.9401 43.6174C40.2005 43.7282 40.4248 43.8917 40.6132 44.1077L40.1146 44.6063C39.9927 44.4623 39.8431 44.3543 39.6658 44.2822C39.4941 44.2047 39.3029 44.1659 39.0924 44.1659C38.8431 44.1659 38.6215 44.2241 38.4276 44.3404C38.2337 44.4512 38.0813 44.6063 37.9705 44.8058C37.8597 45.0052 37.8043 45.2352 37.8043 45.4955C37.8043 45.7559 37.8597 45.9858 37.9705 46.1853C38.0813 46.3847 38.2337 46.5426 38.4276 46.659C38.6215 46.7753 38.8431 46.8335 39.0924 46.8335C39.3029 46.8335 39.4941 46.7975 39.6658 46.7255C39.8431 46.6479 39.9955 46.5371 40.1229 46.3931L40.6132 46.8917C40.4304 47.1022 40.206 47.2656 39.9401 47.382C39.6797 47.4983 39.3971 47.5565 39.0924 47.5565ZM43.1021 47.5565C42.7087 47.5565 42.3541 47.4678 42.0383 47.2906C41.7226 47.1077 41.4732 46.8612 41.2904 46.5509C41.1076 46.2407 41.0162 45.8889 41.0162 45.4955C41.0162 45.1077 41.1048 44.7587 41.2821 44.4484C41.4649 44.1382 41.7087 43.8944 42.0134 43.7171C42.3237 43.5343 42.6699 43.4429 43.0522 43.4429C43.4179 43.4429 43.7392 43.526 44.0162 43.6922C44.2987 43.8584 44.5176 44.0883 44.6727 44.382C44.8334 44.6756 44.9137 45.008 44.9137 45.3792C44.9137 45.4346 44.9109 45.4955 44.9054 45.562C44.8999 45.623 44.8888 45.695 44.8722 45.7781H41.5397V45.1548H44.4733L44.199 45.3958C44.199 45.1299 44.1519 44.9055 44.0577 44.7227C43.9636 44.5343 43.8306 44.3903 43.6589 44.2906C43.4871 44.1853 43.2793 44.1327 43.0356 44.1327C42.7807 44.1327 42.5564 44.1881 42.3624 44.2989C42.1685 44.4097 42.019 44.5648 41.9137 44.7642C41.8084 44.9637 41.7558 45.1991 41.7558 45.4706C41.7558 45.7476 41.8112 45.9914 41.922 46.2019C42.0328 46.4069 42.1907 46.5676 42.3957 46.6839C42.6007 46.7947 42.8361 46.8501 43.1021 46.8501C43.3237 46.8501 43.5259 46.8113 43.7087 46.7338C43.8971 46.6562 44.0577 46.5399 44.1907 46.3847L44.6727 46.875C44.4843 47.0967 44.2517 47.2656 43.9746 47.382C43.7032 47.4983 43.4123 47.5565 43.1021 47.5565Z" fill="black" fill-opacity="0.7"/>
<path d="M19.4426 62.0164V56.249H20.2154V62.0164H19.4426ZM18.2625 56.9471V56.249H20.1323V56.9471H18.2625ZM22.0909 62.0995C21.9358 62.0995 21.8056 62.0468 21.7003 61.9416C21.6006 61.8308 21.5507 61.7006 21.5507 61.551C21.5507 61.3959 21.6006 61.2684 21.7003 61.1687C21.8056 61.0634 21.9358 61.0108 22.0909 61.0108C22.246 61.0108 22.3734 61.0634 22.4732 61.1687C22.5784 61.2684 22.631 61.3959 22.631 61.551C22.631 61.7006 22.5784 61.8308 22.4732 61.9416C22.3734 62.0468 22.246 62.0995 22.0909 62.0995ZM25.4043 62.0995C25.0221 62.0995 24.6786 62.0108 24.3739 61.8335C24.0747 61.6562 23.8365 61.418 23.6592 61.1188C23.4819 60.8197 23.3933 60.4873 23.3933 60.1216C23.3933 59.6119 23.5705 59.105 23.9251 58.6008L25.6204 56.249H26.5262L24.7894 58.6175L24.5068 58.767C24.5733 58.6507 24.6536 58.5537 24.7478 58.4762C24.842 58.3931 24.9584 58.3294 25.0969 58.285C25.2354 58.2407 25.3988 58.2186 25.5872 58.2186C25.9251 58.2186 26.2298 58.2989 26.5013 58.4596C26.7783 58.6202 26.9999 58.8418 27.1661 59.1244C27.3379 59.4014 27.4237 59.7255 27.4237 60.0967C27.4237 60.4623 27.3323 60.7975 27.1495 61.1022C26.9722 61.4069 26.7284 61.6507 26.4182 61.8335C26.1135 62.0108 25.7755 62.0995 25.4043 62.0995ZM25.4043 61.3682C25.637 61.3682 25.8448 61.3128 26.0276 61.2019C26.216 61.0856 26.3628 60.9333 26.4681 60.7449C26.5789 60.551 26.6343 60.3349 26.6343 60.0967C26.6343 59.8585 26.5789 59.6452 26.4681 59.4568C26.3628 59.2629 26.216 59.1105 26.0276 58.9997C25.8448 58.8889 25.637 58.8335 25.4043 58.8335C25.1717 58.8335 24.9611 58.8889 24.7728 58.9997C24.5899 59.1105 24.4431 59.2629 24.3323 59.4568C24.2271 59.6452 24.1744 59.8585 24.1744 60.0967C24.1744 60.3349 24.2271 60.551 24.3323 60.7449C24.4431 60.9388 24.5899 61.0911 24.7728 61.2019C24.9611 61.3128 25.1717 61.3682 25.4043 61.3682ZM30.8264 62.0164L28.9815 59.997L30.8098 58.069H31.7156L29.6796 60.1964L29.7128 59.7643L31.7904 62.0164H30.8264ZM28.3001 62.0164V56.0828H29.048V62.0164H28.3001Z" fill="#FFAE4C"/>
<path d="M112.903 57.5371L111.656 52.1519H17.5771" stroke="#F59E0B" stroke-width="0.488283"/>
<path d="M118.725 105.145V113.668H117.181V106.648H117.132L115.138 107.921V106.506L117.256 105.145H118.725ZM123.948 113.785C123.349 113.785 122.816 113.682 122.35 113.477C121.887 113.271 121.521 112.986 121.251 112.62C120.982 112.253 120.839 111.83 120.823 111.35H122.388C122.401 111.581 122.478 111.782 122.616 111.954C122.755 112.123 122.94 112.255 123.17 112.349C123.4 112.443 123.658 112.491 123.944 112.491C124.249 112.491 124.52 112.438 124.755 112.332C124.991 112.224 125.176 112.074 125.309 111.883C125.442 111.691 125.507 111.471 125.504 111.221C125.507 110.963 125.441 110.736 125.305 110.539C125.169 110.342 124.972 110.188 124.714 110.077C124.459 109.966 124.151 109.91 123.79 109.91H123.037V108.72H123.79C124.087 108.72 124.346 108.669 124.568 108.566C124.793 108.464 124.969 108.319 125.097 108.133C125.224 107.945 125.287 107.727 125.284 107.48C125.287 107.239 125.233 107.029 125.122 106.852C125.013 106.671 124.859 106.531 124.66 106.431C124.463 106.331 124.231 106.282 123.965 106.282C123.704 106.282 123.463 106.329 123.241 106.423C123.019 106.517 122.84 106.652 122.704 106.827C122.568 106.999 122.496 107.204 122.487 107.443H121.002C121.013 106.965 121.15 106.546 121.414 106.186C121.68 105.822 122.035 105.539 122.479 105.337C122.923 105.132 123.421 105.029 123.973 105.029C124.542 105.029 125.036 105.136 125.455 105.349C125.876 105.56 126.202 105.845 126.432 106.202C126.663 106.56 126.778 106.956 126.778 107.389C126.781 107.868 126.639 108.271 126.353 108.595C126.07 108.92 125.699 109.132 125.238 109.232V109.299C125.837 109.382 126.297 109.604 126.616 109.964C126.937 110.322 127.097 110.768 127.094 111.3C127.094 111.778 126.958 112.205 126.686 112.582C126.417 112.957 126.045 113.251 125.571 113.464C125.099 113.678 124.558 113.785 123.948 113.785ZM131.552 113.785C130.934 113.785 130.384 113.681 129.904 113.473C129.427 113.265 129.053 112.98 128.781 112.62C128.512 112.256 128.378 111.844 128.381 111.384C128.378 111.026 128.456 110.697 128.614 110.397C128.772 110.098 128.986 109.848 129.255 109.648C129.527 109.446 129.829 109.317 130.162 109.261V109.203C129.724 109.106 129.369 108.882 129.097 108.533C128.828 108.181 128.695 107.774 128.697 107.314C128.695 106.875 128.817 106.484 129.064 106.14C129.311 105.796 129.649 105.526 130.079 105.329C130.509 105.129 131 105.029 131.552 105.029C132.099 105.029 132.586 105.129 133.013 105.329C133.443 105.526 133.781 105.796 134.028 106.14C134.278 106.484 134.403 106.875 134.403 107.314C134.403 107.774 134.265 108.181 133.991 108.533C133.719 108.882 133.368 109.106 132.938 109.203V109.261C133.271 109.317 133.571 109.446 133.837 109.648C134.106 109.848 134.32 110.098 134.478 110.397C134.639 110.697 134.719 111.026 134.719 111.384C134.719 111.844 134.583 112.256 134.311 112.62C134.039 112.98 133.665 113.265 133.188 113.473C132.713 113.681 132.168 113.785 131.552 113.785ZM131.552 112.595C131.871 112.595 132.149 112.54 132.384 112.432C132.62 112.321 132.803 112.166 132.934 111.966C133.064 111.766 133.131 111.536 133.134 111.275C133.131 111.003 133.06 110.763 132.921 110.555C132.785 110.345 132.598 110.179 132.36 110.06C132.124 109.941 131.855 109.881 131.552 109.881C131.247 109.881 130.975 109.941 130.737 110.06C130.498 110.179 130.309 110.345 130.171 110.555C130.035 110.763 129.968 111.003 129.971 111.275C129.968 111.536 130.032 111.766 130.162 111.966C130.293 112.163 130.476 112.317 130.712 112.428C130.95 112.539 131.23 112.595 131.552 112.595ZM131.552 108.712C131.813 108.712 132.043 108.659 132.243 108.554C132.446 108.448 132.605 108.301 132.722 108.113C132.838 107.924 132.898 107.706 132.901 107.459C132.898 107.215 132.839 107.001 132.726 106.818C132.612 106.632 132.454 106.49 132.251 106.39C132.049 106.287 131.816 106.236 131.552 106.236C131.283 106.236 131.046 106.287 130.841 106.39C130.638 106.49 130.48 106.632 130.366 106.818C130.255 107.001 130.201 107.215 130.204 107.459C130.201 107.706 130.257 107.924 130.37 108.113C130.487 108.298 130.646 108.446 130.849 108.554C131.054 108.659 131.289 108.712 131.552 108.712Z" fill="black" fill-opacity="0.9"/>
<circle cx="55.2225" cy="189.133" r="3.91098" fill="#10B981" stroke="white" stroke-width="0.488283"/>
<path d="M62.2365 190.017V189.108H64.3307C64.6188 189.108 64.8737 189.049 65.0953 188.931C65.3243 188.813 65.5016 188.646 65.6271 188.432C65.7601 188.218 65.8266 187.963 65.8266 187.668C65.8266 187.372 65.7601 187.117 65.6271 186.903C65.5016 186.689 65.3243 186.523 65.0953 186.404C64.8737 186.286 64.6188 186.227 64.3307 186.227H62.2365V185.319H64.3972C64.87 185.319 65.291 185.415 65.6604 185.607C66.0371 185.799 66.3326 186.072 66.5468 186.427C66.7684 186.774 66.8792 187.187 66.8792 187.668C66.8792 188.14 66.7684 188.554 66.5468 188.909C66.3326 189.256 66.0371 189.529 65.6604 189.729C65.291 189.921 64.87 190.017 64.3972 190.017H62.2365ZM61.5385 193.008V185.319H62.58V193.008H61.5385ZM70.0161 193.119C69.5359 193.119 69.1001 193.001 68.7086 192.765C68.3171 192.521 68.0068 192.192 67.7779 191.778C67.5562 191.365 67.4454 190.899 67.4454 190.382C67.4454 189.865 67.5562 189.4 67.7779 188.986C68.0068 188.572 68.3134 188.244 68.6975 188C69.089 187.756 69.5285 187.634 70.0161 187.634C70.415 187.634 70.7696 187.719 71.0798 187.889C71.3974 188.052 71.6523 188.281 71.8443 188.576C72.0364 188.864 72.1435 189.2 72.1657 189.584V191.169C72.1435 191.546 72.0364 191.882 71.8443 192.177C71.6597 192.473 71.4085 192.705 71.0909 192.875C70.7806 193.038 70.4224 193.119 70.0161 193.119ZM70.1823 192.177C70.6772 192.177 71.0761 192.011 71.379 191.679C71.6818 191.339 71.8333 190.907 71.8333 190.382C71.8333 190.02 71.7631 189.706 71.6227 189.44C71.4898 189.167 71.2977 188.957 71.0466 188.809C70.7954 188.654 70.5036 188.576 70.1712 188.576C69.8388 188.576 69.5433 188.654 69.2848 188.809C69.0336 188.964 68.8342 189.178 68.6864 189.452C68.5461 189.717 68.4759 190.024 68.4759 190.371C68.4759 190.726 68.5461 191.04 68.6864 191.313C68.8342 191.579 69.0373 191.789 69.2959 191.945C69.5544 192.1 69.8499 192.177 70.1823 192.177ZM71.7668 193.008V191.59L71.9552 190.305L71.7668 189.03V187.745H72.7751V193.008H71.7668ZM74.2381 193.008V187.745H75.2353V193.008H74.2381ZM74.7367 186.692C74.552 186.692 74.4006 186.633 74.2824 186.515C74.1642 186.39 74.1051 186.234 74.1051 186.05C74.1051 185.873 74.1642 185.725 74.2824 185.607C74.4006 185.481 74.552 185.418 74.7367 185.418C74.9213 185.418 75.0728 185.481 75.191 185.607C75.3092 185.725 75.3683 185.873 75.3683 186.05C75.3683 186.234 75.3092 186.39 75.191 186.515C75.0728 186.633 74.9213 186.692 74.7367 186.692ZM78.9321 193.119C78.4445 193.119 78.0087 193.001 77.6246 192.765C77.2405 192.521 76.9339 192.192 76.7049 191.778C76.4833 191.365 76.3725 190.899 76.3725 190.382C76.3725 189.865 76.4833 189.4 76.7049 188.986C76.9339 188.572 77.2405 188.244 77.6246 188C78.0087 187.756 78.4445 187.634 78.9321 187.634C79.3236 187.634 79.6781 187.719 79.9958 187.889C80.3134 188.052 80.5683 188.281 80.7603 188.576C80.9598 188.864 81.0706 189.2 81.0927 189.584V191.169C81.0706 191.546 80.9635 191.882 80.7714 192.177C80.5793 192.473 80.3245 192.705 80.0069 192.875C79.6892 193.038 79.331 193.119 78.9321 193.119ZM79.0983 192.177C79.4307 192.177 79.7188 192.1 79.9625 191.945C80.2137 191.789 80.4095 191.579 80.5498 191.313C80.6902 191.04 80.7603 190.729 80.7603 190.382C80.7603 190.02 80.6865 189.706 80.5387 189.44C80.3984 189.174 80.2026 188.964 79.9515 188.809C79.7077 188.654 79.4196 188.576 79.0872 188.576C78.7548 188.576 78.463 188.654 78.2118 188.809C77.9607 188.964 77.7612 189.178 77.6135 189.452C77.4732 189.717 77.403 190.024 77.403 190.371C77.403 190.726 77.4732 191.04 77.6135 191.313C77.7612 191.579 77.9607 191.789 78.2118 191.945C78.4704 192.1 78.7659 192.177 79.0983 192.177ZM81.7022 193.008H80.6938V191.59L80.8822 190.305L80.6938 189.03V185.097H81.7022V193.008Z" fill="black" fill-opacity="0.7"/>
<circle cx="101.461" cy="189.133" r="3.91098" fill="#DA3743" stroke="white" stroke-width="0.488283"/>
<path d="M111.172 193.119C110.603 193.119 110.093 192.994 109.643 192.742C109.2 192.484 108.849 192.133 108.59 191.69C108.332 191.239 108.202 190.729 108.202 190.161V185.319H109.244V190.138C109.244 190.545 109.329 190.896 109.499 191.191C109.669 191.487 109.898 191.716 110.186 191.878C110.481 192.041 110.81 192.122 111.172 192.122C111.549 192.122 111.877 192.041 112.158 191.878C112.446 191.716 112.671 191.487 112.834 191.191C113.004 190.896 113.089 190.548 113.089 190.15V185.319H114.141V190.172C114.141 190.741 114.012 191.247 113.754 191.69C113.495 192.133 113.144 192.484 112.701 192.742C112.258 192.994 111.748 193.119 111.172 193.119ZM119.4 193.008V189.939C119.4 189.54 119.275 189.211 119.024 188.953C118.772 188.694 118.447 188.565 118.048 188.565C117.783 188.565 117.546 188.624 117.339 188.742C117.133 188.861 116.97 189.023 116.852 189.23C116.734 189.437 116.675 189.673 116.675 189.939L116.265 189.706C116.265 189.307 116.353 188.953 116.53 188.643C116.708 188.332 116.955 188.089 117.273 187.911C117.59 187.727 117.949 187.634 118.348 187.634C118.747 187.634 119.097 187.734 119.4 187.933C119.711 188.133 119.954 188.395 120.132 188.72C120.309 189.038 120.398 189.378 120.398 189.74V193.008H119.4ZM115.677 193.008V187.745H116.675V193.008H115.677ZM124.518 193.119C124.119 193.119 123.757 193.038 123.432 192.875C123.114 192.705 122.859 192.473 122.667 192.177C122.475 191.882 122.368 191.546 122.346 191.169V189.584C122.368 189.2 122.475 188.864 122.667 188.576C122.867 188.281 123.125 188.052 123.443 187.889C123.768 187.719 124.126 187.634 124.518 187.634C124.998 187.634 125.43 187.756 125.814 188C126.206 188.244 126.512 188.572 126.734 188.986C126.955 189.4 127.066 189.865 127.066 190.382C127.066 190.899 126.955 191.365 126.734 191.778C126.512 192.192 126.206 192.521 125.814 192.765C125.43 193.001 124.998 193.119 124.518 193.119ZM121.748 195.213V187.745H122.745V189.13L122.557 190.404L122.745 191.69V195.213H121.748ZM124.352 192.177C124.684 192.177 124.976 192.1 125.227 191.945C125.478 191.789 125.678 191.579 125.825 191.313C125.973 191.04 126.047 190.726 126.047 190.371C126.047 190.024 125.973 189.714 125.825 189.44C125.678 189.167 125.478 188.957 125.227 188.809C124.976 188.654 124.688 188.576 124.363 188.576C124.03 188.576 123.738 188.654 123.487 188.809C123.236 188.957 123.04 189.167 122.9 189.44C122.76 189.714 122.69 190.028 122.69 190.382C122.69 190.729 122.756 191.04 122.889 191.313C123.029 191.579 123.225 191.789 123.476 191.945C123.735 192.1 124.027 192.177 124.352 192.177ZM130.435 193.119C129.955 193.119 129.519 193.001 129.128 192.765C128.736 192.521 128.426 192.192 128.197 191.778C127.975 191.365 127.864 190.899 127.864 190.382C127.864 189.865 127.975 189.4 128.197 188.986C128.426 188.572 128.732 188.244 129.116 188C129.508 187.756 129.948 187.634 130.435 187.634C130.834 187.634 131.189 187.719 131.499 187.889C131.816 188.052 132.071 188.281 132.263 188.576C132.455 188.864 132.562 189.2 132.585 189.584V191.169C132.562 191.546 132.455 191.882 132.263 192.177C132.079 192.473 131.827 192.705 131.51 192.875C131.2 193.038 130.841 193.119 130.435 193.119ZM130.601 192.177C131.096 192.177 131.495 192.011 131.798 191.679C132.101 191.339 132.252 190.907 132.252 190.382C132.252 190.02 132.182 189.706 132.042 189.44C131.909 189.167 131.717 188.957 131.466 188.809C131.214 188.654 130.923 188.576 130.59 188.576C130.258 188.576 129.962 188.654 129.704 188.809C129.453 188.964 129.253 189.178 129.105 189.452C128.965 189.717 128.895 190.024 128.895 190.371C128.895 190.726 128.965 191.04 129.105 191.313C129.253 191.579 129.456 191.789 129.715 191.945C129.973 192.1 130.269 192.177 130.601 192.177ZM132.186 193.008V191.59L132.374 190.305L132.186 189.03V187.745H133.194V193.008H132.186ZM134.657 193.008V187.745H135.654V193.008H134.657ZM135.156 186.692C134.971 186.692 134.82 186.633 134.701 186.515C134.583 186.39 134.524 186.234 134.524 186.05C134.524 185.873 134.583 185.725 134.701 185.607C134.82 185.481 134.971 185.418 135.156 185.418C135.34 185.418 135.492 185.481 135.61 185.607C135.728 185.725 135.787 185.873 135.787 186.05C135.787 186.234 135.728 186.39 135.61 186.515C135.492 186.633 135.34 186.692 135.156 186.692ZM139.351 193.119C138.863 193.119 138.428 193.001 138.044 192.765C137.659 192.521 137.353 192.192 137.124 191.778C136.902 191.365 136.791 190.899 136.791 190.382C136.791 189.865 136.902 189.4 137.124 188.986C137.353 188.572 137.659 188.244 138.044 188C138.428 187.756 138.863 187.634 139.351 187.634C139.743 187.634 140.097 187.719 140.415 187.889C140.732 188.052 140.987 188.281 141.179 188.576C141.379 188.864 141.49 189.2 141.512 189.584V191.169C141.49 191.546 141.382 191.882 141.19 192.177C140.998 192.473 140.743 192.705 140.426 192.875C140.108 193.038 139.75 193.119 139.351 193.119ZM139.517 192.177C139.85 192.177 140.138 192.1 140.382 191.945C140.633 191.789 140.828 191.579 140.969 191.313C141.109 191.04 141.179 190.729 141.179 190.382C141.179 190.02 141.105 189.706 140.958 189.44C140.817 189.174 140.622 188.964 140.37 188.809C140.127 188.654 139.839 188.576 139.506 188.576C139.174 188.576 138.882 188.654 138.631 188.809C138.38 188.964 138.18 189.178 138.032 189.452C137.892 189.717 137.822 190.024 137.822 190.371C137.822 190.726 137.892 191.04 138.032 191.313C138.18 191.579 138.38 191.789 138.631 191.945C138.889 192.1 139.185 192.177 139.517 192.177ZM142.121 193.008H141.113V191.59L141.301 190.305L141.113 189.03V185.097H142.121V193.008Z" fill="black" fill-opacity="0.7"/>
<circle cx="162.391" cy="188.133" r="3.91098" fill="#FFAE4C" stroke="white" stroke-width="0.488283"/>
<path d="M168.929 192.008V185.28H169.841V192.008H168.929ZM174.531 192.008V189.323C174.531 188.974 174.421 188.686 174.202 188.46C173.982 188.234 173.698 188.12 173.349 188.12C173.116 188.12 172.909 188.172 172.728 188.276C172.547 188.379 172.405 188.521 172.301 188.702C172.198 188.883 172.146 189.09 172.146 189.323L171.788 189.119C171.788 188.77 171.865 188.46 172.02 188.188C172.175 187.917 172.392 187.704 172.67 187.548C172.948 187.387 173.261 187.306 173.61 187.306C173.959 187.306 174.266 187.393 174.531 187.568C174.803 187.742 175.016 187.972 175.171 188.256C175.326 188.534 175.404 188.831 175.404 189.148V192.008H174.531ZM171.274 192.008V187.403H172.146V192.008H171.274ZM178.166 192.008L176.052 187.403H177.022L178.718 191.291H178.156L179.862 187.403H180.793L178.68 192.008H178.166ZM183.461 192.105C183.009 192.105 182.602 191.999 182.24 191.785C181.878 191.572 181.59 191.284 181.377 190.922C181.163 190.554 181.057 190.144 181.057 189.691C181.057 189.245 181.163 188.844 181.377 188.489C181.59 188.127 181.878 187.839 182.24 187.626C182.602 187.413 183.009 187.306 183.461 187.306C183.907 187.306 184.311 187.413 184.673 187.626C185.041 187.833 185.332 188.117 185.546 188.479C185.759 188.841 185.866 189.245 185.866 189.691C185.866 190.144 185.759 190.554 185.546 190.922C185.332 191.284 185.041 191.572 184.673 191.785C184.311 191.999 183.907 192.105 183.461 192.105ZM183.461 191.262C183.752 191.262 184.011 191.194 184.237 191.058C184.463 190.922 184.641 190.738 184.77 190.506C184.899 190.266 184.964 189.995 184.964 189.691C184.964 189.394 184.896 189.129 184.76 188.896C184.631 188.663 184.453 188.482 184.227 188.353C184.007 188.217 183.752 188.15 183.461 188.15C183.17 188.15 182.912 188.217 182.686 188.353C182.459 188.482 182.282 188.663 182.152 188.896C182.023 189.129 181.958 189.394 181.958 189.691C181.958 189.995 182.023 190.266 182.152 190.506C182.282 190.738 182.459 190.922 182.686 191.058C182.912 191.194 183.17 191.262 183.461 191.262ZM186.858 192.008V187.403H187.731V192.008H186.858ZM187.295 186.482C187.133 186.482 187.001 186.43 186.897 186.327C186.794 186.217 186.742 186.081 186.742 185.92C186.742 185.765 186.794 185.635 186.897 185.532C187.001 185.422 187.133 185.367 187.295 185.367C187.456 185.367 187.589 185.422 187.692 185.532C187.796 185.635 187.847 185.765 187.847 185.92C187.847 186.081 187.796 186.217 187.692 186.327C187.589 186.43 187.456 186.482 187.295 186.482ZM191.121 192.105C190.668 192.105 190.258 191.999 189.89 191.785C189.528 191.572 189.24 191.284 189.027 190.922C188.82 190.554 188.716 190.147 188.716 189.701C188.716 189.248 188.82 188.841 189.027 188.479C189.24 188.117 189.528 187.833 189.89 187.626C190.258 187.413 190.668 187.306 191.121 187.306C191.476 187.306 191.806 187.374 192.11 187.51C192.414 187.639 192.675 187.83 192.895 188.082L192.313 188.663C192.171 188.495 191.997 188.369 191.79 188.285C191.589 188.195 191.366 188.15 191.121 188.15C190.83 188.15 190.571 188.217 190.345 188.353C190.119 188.482 189.941 188.663 189.812 188.896C189.683 189.129 189.618 189.397 189.618 189.701C189.618 190.005 189.683 190.273 189.812 190.506C189.941 190.738 190.119 190.922 190.345 191.058C190.571 191.194 190.83 191.262 191.121 191.262C191.366 191.262 191.589 191.22 191.79 191.136C191.997 191.045 192.174 190.916 192.323 190.748L192.895 191.33C192.682 191.575 192.42 191.766 192.11 191.902C191.806 192.037 191.476 192.105 191.121 192.105ZM195.799 192.105C195.34 192.105 194.926 192.002 194.558 191.795C194.189 191.582 193.898 191.294 193.685 190.932C193.472 190.57 193.365 190.16 193.365 189.701C193.365 189.248 193.469 188.841 193.675 188.479C193.889 188.117 194.173 187.833 194.529 187.626C194.891 187.413 195.295 187.306 195.741 187.306C196.167 187.306 196.542 187.403 196.865 187.597C197.195 187.791 197.45 188.059 197.631 188.402C197.819 188.744 197.912 189.132 197.912 189.565C197.912 189.63 197.909 189.701 197.903 189.778C197.896 189.849 197.883 189.934 197.864 190.03H193.976V189.303H197.398L197.079 189.584C197.079 189.274 197.024 189.012 196.914 188.799C196.804 188.579 196.649 188.411 196.448 188.295C196.248 188.172 196.006 188.111 195.721 188.111C195.424 188.111 195.162 188.175 194.936 188.305C194.71 188.434 194.535 188.615 194.412 188.848C194.29 189.08 194.228 189.355 194.228 189.672C194.228 189.995 194.293 190.279 194.422 190.525C194.551 190.764 194.736 190.952 194.975 191.087C195.214 191.217 195.489 191.281 195.799 191.281C196.057 191.281 196.293 191.236 196.507 191.145C196.726 191.055 196.914 190.919 197.069 190.738L197.631 191.31C197.411 191.569 197.14 191.766 196.817 191.902C196.5 192.037 196.161 192.105 195.799 192.105Z" fill="black" fill-opacity="0.7"/>
</svg>
